<?xml version="1.0" encoding="utf-8"?>
<!-- Generator: Adobe Illustrator 18.1.1, SVG Export Plug-In . SVG Version: 6.00 Build 0)  -->
<svg version="1.1" id="Layer_1" xmlns="http://www.w3.org/2000/svg" xmlns:xlink="http://www.w3.org/1999/xlink" x="0px" y="0px"
	 viewBox="0 0 460.9 214.2" enable-background="new 0 0 460.9 214.2" xml:space="preserve">
<g>
	<path fill="#FFFFFF" d="M6.1,201.4l11.8-26c12.5,7.1,25.1,11.2,41.2,11.2c23.7,0,34.8-11.4,34.8-33.3v-5.9
		c-10.2,12.3-21.4,19.8-39.9,19.8C25.7,167.3,0,146.5,0,110.3v-0.5c0-36.4,26.2-56.9,54.2-56.9c18.9,0,30.1,8,39.4,18.2V55.2h34.6
		v94.5c0,21.9-5.2,37.8-15.5,48.1c-11.4,11.4-28.9,16.4-52.6,16.4C40.3,214.2,21.6,209.6,6.1,201.4z M94.1,110.3v-0.5
		c0-16.6-13-28.2-29.8-28.2c-16.9,0-29.6,11.6-29.6,28.2v0.5c0,16.9,12.8,28.2,29.6,28.2C81.1,138.6,94.1,126.9,94.1,110.3z"/>
	<path fill="#FFFFFF" d="M136.7,116.5V116c0-40.8,26.6-63.1,55.6-63.1c18.4,0,29.8,8.4,38,18.2V11H265v166.3h-34.6v-17.5
		c-8.4,11.4-20,19.8-38,19.8C163.8,179.6,136.7,157.2,136.7,116.5z M230.8,116.5V116c0-20.3-13.4-33.7-29.6-33.7
		c-16.2,0-29.8,13.2-29.8,33.7v0.5c0,20.3,13.7,33.7,29.8,33.7C217.4,150.2,230.8,136.7,230.8,116.5z"/>
	<path fill="#FFFFFF" d="M281.6,11h36.4v30.7h-36.4V11z M282.5,55.2h34.6v122.1h-34.6V55.2z"/>
</g>
<path fill="#FFFFFF" d="M421.2,139.3c0,0-31-47.1-31.3-98.2c-0.2-42.8,46.4-52,59.4-28.3c14.7,27-6.9,50.3-15.6,66.2
	C423.2,98.3,421.2,139.3,421.2,139.3"/>
<path fill="#FFFFFF" d="M431.8,198.7c0,0-11-12.2-26.8-21.5c-12.5-7.3-28.2-11.5-42.2-15.4C327,152,346.3,90,393.2,124.2
	C415.3,140.3,423.9,171.7,431.8,198.7"/>
<path fill="#FFFFFF" d="M443.8,188.2c-10.5-14.6-21.6-48.7-3.5-57.1c20.8-9.7,25.6,16.2,15.9,24.1
	C446.2,163.4,443.8,188.2,443.8,188.2"/>
</svg>
