<?xml version="1.0" encoding="utf-8"?>
<!-- Generator: Adobe Illustrator 18.1.1, SVG Export Plug-In . SVG Version: 6.00 Build 0)  -->
<svg version="1.1" id="Layer_1" xmlns="http://www.w3.org/2000/svg" xmlns:xlink="http://www.w3.org/1999/xlink" x="0px" y="0px"
	 viewBox="0 0 2560 1440" enable-background="new 0 0 2560 1440" xml:space="preserve">
<g>
	<defs>
		<rect id="SVGID_1_" x="-1.2" width="2560" height="1440"/>
	</defs>
	<clipPath id="SVGID_2_">
		<use xlink:href="#SVGID_1_"  overflow="visible"/>
	</clipPath>
	<g clip-path="url(#SVGID_2_)">
		<g>
			<polygon fill="#179177" points="120.5,-19.2 -34.7,225.3 -189.8,-19.2 			"/>
			<polygon fill="#168C73" points="-34.7,225.3 120.5,-19.2 275.7,225.3 			"/>
			<polygon fill="#158970" points="430.8,-19.2 275.7,225.3 120.5,-19.2 			"/>
			<polygon fill="#0D7C79" points="275.7,225.3 430.8,-19.2 586,225.3 			"/>
			<polygon fill="#7C9869" points="741.1,-19.2 586,225.3 430.8,-19.2 			"/>
			<polygon fill="#158970" points="586,225.3 741.1,-19.2 896.3,225.3 			"/>
			<polygon fill="#C6863A" points="1051.5,-19.2 896.3,225.3 741.1,-19.2 			"/>
			<polygon fill="#D18136" points="896.3,225.3 1051.5,-19.2 1206.6,225.3 			"/>
			<polygon fill="#CA6128" points="1361.8,-19.2 1206.6,225.3 1051.5,-19.2 			"/>
			<polygon fill="#C68539" points="1206.6,225.3 1361.8,-19.2 1517,225.3 			"/>
			<polygon fill="#0A797E" points="-189.8,469.9 -34.7,225.3 120.5,469.9 			"/>
			<polygon fill="#029679" points="275.7,225.3 120.5,469.9 -34.7,225.3 			"/>
			<polygon fill="#037B98" points="120.5,469.9 275.7,225.3 430.8,469.9 			"/>
			<polygon fill="#03708A" points="586,225.3 430.8,469.9 275.7,225.3 			"/>
			<polygon fill="#006780" points="430.8,469.9 586,225.3 741.1,469.9 			"/>
			<polygon fill="#13846C" points="896.3,225.3 741.1,469.9 586,225.3 			"/>
			<polygon fill="#179177" points="741.1,469.9 896.3,225.3 1051.5,469.9 			"/>
			<polygon fill="#CA6128" points="1206.6,225.3 1051.5,469.9 896.3,225.3 			"/>
			<polygon fill="#C6863A" points="1051.5,469.9 1206.6,225.3 1361.8,469.9 			"/>
			<polygon fill="#CD6E2C" points="1517,225.3 1361.8,469.9 1206.6,225.3 			"/>
			<polygon fill="#73627D" points="120.5,469.9 -34.7,714.4 -189.8,469.9 			"/>
			<polygon fill="#0088A7" points="-34.7,714.4 120.5,469.9 275.7,714.4 			"/>
			<polygon fill="#03708A" points="430.8,469.9 275.7,714.4 120.5,469.9 			"/>
			<polygon fill="#006780" points="275.7,714.4 430.8,469.9 586,714.4 			"/>
			<polygon fill="#03708A" points="741.1,469.9 586,714.4 430.8,469.9 			"/>
			<polygon fill="#037590" points="586,714.4 741.1,469.9 896.3,714.4 			"/>
			<polygon fill="#0C7B7A" points="1051.5,469.9 896.3,714.4 741.1,469.9 			"/>
			<polygon fill="#037590" points="896.3,714.4 1051.5,469.9 1206.6,714.4 			"/>
			<polygon fill="#005A70" points="1361.8,469.9 1206.6,714.4 1051.5,469.9 			"/>
			<polygon fill="#03708A" points="1206.6,714.4 1361.8,469.9 1517,714.4 			"/>
			<polygon fill="#677D9C" points="-189.8,959 -34.7,714.4 120.5,959 			"/>
			<polygon fill="#806E8B" points="275.7,714.4 120.5,959 -34.7,714.4 			"/>
			<polygon fill="#7B7E9E" points="120.5,959 275.7,714.4 430.8,959 			"/>
			<polygon fill="#03708A" points="586,714.4 430.8,959 275.7,714.4 			"/>
			<polygon fill="#037590" points="430.8,959 586,714.4 741.1,959 			"/>
			<polygon fill="#037B98" points="896.3,714.4 741.1,959 586,714.4 			"/>
			<polygon fill="#037590" points="741.1,959 896.3,714.4 1051.5,959 			"/>
			<polygon fill="#005A70" points="1206.6,714.4 1051.5,959 896.3,714.4 			"/>
			<polygon fill="#006780" points="1051.5,959 1206.6,714.4 1361.8,959 			"/>
			<polygon fill="#03708A" points="1517,714.4 1361.8,959 1206.6,714.4 			"/>
			<polygon fill="#806E8B" points="120.5,959 -34.7,1203.5 -189.8,959 			"/>
			<polygon fill="#7B7E9E" points="-34.7,1203.5 120.5,959 275.7,1203.5 			"/>
			<polygon fill="#9680A1" points="430.8,959 275.7,1203.5 120.5,959 			"/>
			<polygon fill="#0082A0" points="275.7,1203.5 430.8,959 586,1203.5 			"/>
			<polygon fill="#0088A7" points="741.1,959 586,1203.5 430.8,959 			"/>
			<polygon fill="#03708A" points="586,1203.5 741.1,959 896.3,1203.5 			"/>
			<polygon fill="#005A70" points="1051.5,959 896.3,1203.5 741.1,959 			"/>
			<polygon fill="#006780" points="896.3,1203.5 1051.5,959 1206.6,1203.5 			"/>
			<polygon fill="#03708A" points="1361.8,959 1206.6,1203.5 1051.5,959 			"/>
			<polygon fill="#006780" points="1206.6,1203.5 1361.8,959 1517,1203.5 			"/>
			<polygon fill="#806E8B" points="-189.8,1448.1 -34.7,1203.5 120.5,1448.1 			"/>
			<polygon fill="#73627D" points="275.7,1203.5 120.5,1448.1 -34.7,1203.5 			"/>
			<polygon fill="#8E6982" points="120.5,1448.1 275.7,1203.5 430.8,1448.1 			"/>
			<polygon fill="#677D9C" points="586,1203.5 430.8,1448.1 275.7,1203.5 			"/>
			<polygon fill="#0082A0" points="430.8,1448.1 586,1203.5 741.1,1448.1 			"/>
			<polygon fill="#037590" points="896.3,1203.5 741.1,1448.1 586,1203.5 			"/>
			<polygon fill="#006780" points="741.1,1448.1 896.3,1203.5 1051.5,1448.1 			"/>
			<polygon fill="#03708A" points="1206.6,1203.5 1051.5,1448.1 896.3,1203.5 			"/>
			<polygon fill="#006780" points="1051.5,1448.1 1206.6,1203.5 1361.8,1448.1 			"/>
			<polygon fill="#005A70" points="1517,1203.5 1361.8,1448.1 1206.6,1203.5 			"/>
		</g>
		<g opacity="0.3">
			<polygon fill="#168C73" points="-267.4,103 -112.3,-141.5 42.9,103 			"/>
			<polygon fill="#158970" points="198.1,-141.5 42.9,103 -112.3,-141.5 			"/>
			<polygon fill="#0D7C79" points="42.9,103 198.1,-141.5 353.2,103 			"/>
			<polygon fill="#7C9869" points="508.4,-141.5 353.2,103 198.1,-141.5 			"/>
			<polygon fill="#158970" points="353.2,103 508.4,-141.5 663.6,103 			"/>
			<polygon fill="#C6863A" points="818.7,-141.5 663.6,103 508.4,-141.5 			"/>
			<polygon fill="#D18136" points="663.6,103 818.7,-141.5 973.9,103 			"/>
			<polygon fill="#CA6128" points="1129.1,-141.5 973.9,103 818.7,-141.5 			"/>
			<polygon fill="#C68539" points="973.9,103 1129.1,-141.5 1284.2,103 			"/>
			<polygon fill="#029679" points="42.9,103 -112.3,347.6 -267.4,103 			"/>
			<polygon fill="#037B98" points="-112.3,347.6 42.9,103 198.1,347.6 			"/>
			<polygon fill="#03708A" points="353.2,103 198.1,347.6 42.9,103 			"/>
			<polygon fill="#006780" points="198.1,347.6 353.2,103 508.4,347.6 			"/>
			<polygon fill="#13846C" points="663.6,103 508.4,347.6 353.2,103 			"/>
			<polygon fill="#179177" points="508.4,347.6 663.6,103 818.7,347.6 			"/>
			<polygon fill="#CA6128" points="973.9,103 818.7,347.6 663.6,103 			"/>
			<polygon fill="#C6863A" points="818.7,347.6 973.9,103 1129.1,347.6 			"/>
			<polygon fill="#CD6E2C" points="1284.2,103 1129.1,347.6 973.9,103 			"/>
			<polygon fill="#0088A7" points="-267.4,592.2 -112.3,347.6 42.9,592.2 			"/>
			<polygon fill="#03708A" points="198.1,347.6 42.9,592.2 -112.3,347.6 			"/>
			<polygon fill="#006780" points="42.9,592.2 198.1,347.6 353.2,592.2 			"/>
			<polygon fill="#03708A" points="508.4,347.6 353.2,592.2 198.1,347.6 			"/>
			<polygon fill="#037590" points="353.2,592.2 508.4,347.6 663.6,592.2 			"/>
			<polygon fill="#0C7B7A" points="818.7,347.6 663.6,592.2 508.4,347.6 			"/>
			<polygon fill="#037590" points="663.6,592.2 818.7,347.6 973.9,592.2 			"/>
			<polygon fill="#005A70" points="1129.1,347.6 973.9,592.2 818.7,347.6 			"/>
			<polygon fill="#03708A" points="973.9,592.2 1129.1,347.6 1284.2,592.2 			"/>
			<polygon fill="#806E8B" points="42.9,592.2 -112.3,836.7 -267.4,592.2 			"/>
			<polygon fill="#7B7E9E" points="-112.3,836.7 42.9,592.2 198.1,836.7 			"/>
			<polygon fill="#03708A" points="353.2,592.2 198.1,836.7 42.9,592.2 			"/>
			<polygon fill="#037590" points="198.1,836.7 353.2,592.2 508.4,836.7 			"/>
			<polygon fill="#037B98" points="663.6,592.2 508.4,836.7 353.2,592.2 			"/>
			<polygon fill="#037590" points="508.4,836.7 663.6,592.2 818.7,836.7 			"/>
			<polygon fill="#005A70" points="973.9,592.2 818.7,836.7 663.6,592.2 			"/>
			<polygon fill="#006780" points="818.7,836.7 973.9,592.2 1129.1,836.7 			"/>
			<polygon fill="#03708A" points="1284.2,592.2 1129.1,836.7 973.9,592.2 			"/>
			<polygon fill="#7B7E9E" points="-267.4,1081.3 -112.3,836.7 42.9,1081.3 			"/>
			<polygon fill="#9680A1" points="198.1,836.7 42.9,1081.3 -112.3,836.7 			"/>
			<polygon fill="#0082A0" points="42.9,1081.3 198.1,836.7 353.2,1081.3 			"/>
			<polygon fill="#0088A7" points="508.4,836.7 353.2,1081.3 198.1,836.7 			"/>
			<polygon fill="#03708A" points="353.2,1081.3 508.4,836.7 663.6,1081.3 			"/>
			<polygon fill="#005A70" points="818.7,836.7 663.6,1081.3 508.4,836.7 			"/>
			<polygon fill="#006780" points="663.6,1081.3 818.7,836.7 973.9,1081.3 			"/>
			<polygon fill="#03708A" points="1129.1,836.7 973.9,1081.3 818.7,836.7 			"/>
			<polygon fill="#006780" points="973.9,1081.3 1129.1,836.7 1284.2,1081.3 			"/>
			<polygon fill="#73627D" points="42.9,1081.3 -112.3,1325.8 -267.4,1081.3 			"/>
			<polygon fill="#8E6982" points="-112.3,1325.8 42.9,1081.3 198.1,1325.8 			"/>
			<polygon fill="#677D9C" points="353.2,1081.3 198.1,1325.8 42.9,1081.3 			"/>
			<polygon fill="#0082A0" points="198.1,1325.8 353.2,1081.3 508.4,1325.8 			"/>
			<polygon fill="#037590" points="663.6,1081.3 508.4,1325.8 353.2,1081.3 			"/>
			<polygon fill="#006780" points="508.4,1325.8 663.6,1081.3 818.7,1325.8 			"/>
			<polygon fill="#03708A" points="973.9,1081.3 818.7,1325.8 663.6,1081.3 			"/>
			<polygon fill="#006780" points="818.7,1325.8 973.9,1081.3 1129.1,1325.8 			"/>
			<polygon fill="#005A70" points="1284.2,1081.3 1129.1,1325.8 973.9,1081.3 			"/>
		</g>
		<g opacity="0.5">
			<polygon fill="#13846C" points="106.6,-168.1 -48.5,76.5 -203.7,-168.1 			"/>
			<polygon fill="#158970" points="-48.5,76.5 106.6,-168.1 261.8,76.5 			"/>
			<polygon fill="#08808E" points="417,-168.1 261.8,76.5 106.6,-168.1 			"/>
			<polygon fill="#037B98" points="261.8,76.5 417,-168.1 572.1,76.5 			"/>
			<polygon fill="#005A70" points="727.3,-168.1 572.1,76.5 417,-168.1 			"/>
			<polygon fill="#879A67" points="572.1,76.5 727.3,-168.1 882.4,76.5 			"/>
			<polygon fill="#C7873A" points="1037.6,-168.1 882.4,76.5 727.3,-168.1 			"/>
			<polygon fill="#DDAE53" points="882.4,76.5 1037.6,-168.1 1192.8,76.5 			"/>
			<polygon fill="#CDA24D" points="1347.9,-168.1 1192.8,76.5 1037.6,-168.1 			"/>
			<polygon fill="#C68539" points="1192.8,76.5 1347.9,-168.1 1503.1,76.5 			"/>
			<polygon fill="#CA6128" points="1658.3,-168.1 1503.1,76.5 1347.9,-168.1 			"/>
			<polygon fill="#158970" points="-203.7,321 -48.5,76.5 106.6,321 			"/>
			<polygon fill="#179177" points="261.8,76.5 106.6,321 -48.5,76.5 			"/>
			<polygon fill="#168C73" points="106.6,321 261.8,76.5 417,321 			"/>
			<polygon fill="#158970" points="572.1,76.5 417,321 261.8,76.5 			"/>
			<polygon fill="#0D7C79" points="417,321 572.1,76.5 727.3,321 			"/>
			<polygon fill="#7C9869" points="882.4,76.5 727.3,321 572.1,76.5 			"/>
			<polygon fill="#158970" points="727.3,321 882.4,76.5 1037.6,321 			"/>
			<polygon fill="#C6863A" points="1192.8,76.5 1037.6,321 882.4,76.5 			"/>
			<polygon fill="#D18136" points="1037.6,321 1192.8,76.5 1347.9,321 			"/>
			<polygon fill="#CA6128" points="1503.1,76.5 1347.9,321 1192.8,76.5 			"/>
			<polygon fill="#C68539" points="1347.9,321 1503.1,76.5 1658.3,321 			"/>
			<polygon fill="#677D9C" points="106.6,321 -48.5,565.6 -203.7,321 			"/>
			<polygon fill="#0A797E" points="-48.5,565.6 106.6,321 261.8,565.6 			"/>
			<polygon fill="#029679" points="417,321 261.8,565.6 106.6,321 			"/>
			<polygon fill="#037B98" points="261.8,565.6 417,321 572.1,565.6 			"/>
			<polygon fill="#03708A" points="727.3,321 572.1,565.6 417,321 			"/>
			<polygon fill="#006780" points="572.1,565.6 727.3,321 882.4,565.6 			"/>
			<polygon fill="#13846C" points="1037.6,321 882.4,565.6 727.3,321 			"/>
			<polygon fill="#179177" points="882.4,565.6 1037.6,321 1192.8,565.6 			"/>
			<polygon fill="#CA6128" points="1347.9,321 1192.8,565.6 1037.6,321 			"/>
			<polygon fill="#C6863A" points="1192.8,565.6 1347.9,321 1503.1,565.6 			"/>
			<polygon fill="#CD6E2C" points="1658.3,321 1503.1,565.6 1347.9,321 			"/>
			<polygon fill="#5F7D9C" points="-203.7,810.1 -48.5,565.6 106.6,810.1 			"/>
			<polygon fill="#73627D" points="261.8,565.6 106.6,810.1 -48.5,565.6 			"/>
			<polygon fill="#0088A7" points="106.6,810.1 261.8,565.6 417,810.1 			"/>
			<polygon fill="#03708A" points="572.1,565.6 417,810.1 261.8,565.6 			"/>
			<polygon fill="#006780" points="417,810.1 572.1,565.6 727.3,810.1 			"/>
			<polygon fill="#03708A" points="882.4,565.6 727.3,810.1 572.1,565.6 			"/>
			<polygon fill="#037590" points="727.3,810.1 882.4,565.6 1037.6,810.1 			"/>
			<polygon fill="#0C7B7A" points="1192.8,565.6 1037.6,810.1 882.4,565.6 			"/>
			<polygon fill="#037590" points="1037.6,810.1 1192.8,565.6 1347.9,810.1 			"/>
			<polygon fill="#005A70" points="1503.1,565.6 1347.9,810.1 1192.8,565.6 			"/>
			<polygon fill="#03708A" points="1347.9,810.1 1503.1,565.6 1658.3,810.1 			"/>
			<polygon fill="#8E7A99" points="106.6,810.1 -48.5,1054.7 -203.7,810.1 			"/>
			<polygon fill="#677D9C" points="-48.5,1054.7 106.6,810.1 261.8,1054.7 			"/>
			<polygon fill="#806E8B" points="417,810.1 261.8,1054.7 106.6,810.1 			"/>
			<polygon fill="#7B7E9E" points="261.8,1054.7 417,810.1 572.1,1054.7 			"/>
			<polygon fill="#03708A" points="727.3,810.1 572.1,1054.7 417,810.1 			"/>
			<polygon fill="#037590" points="572.1,1054.7 727.3,810.1 882.4,1054.7 			"/>
			<polygon fill="#037B98" points="1037.6,810.1 882.4,1054.7 727.3,810.1 			"/>
			<polygon fill="#037590" points="882.4,1054.7 1037.6,810.1 1192.8,1054.7 			"/>
			<polygon fill="#005A70" points="1347.9,810.1 1192.8,1054.7 1037.6,810.1 			"/>
			<polygon fill="#006780" points="1192.8,1054.7 1347.9,810.1 1503.1,1054.7 			"/>
			<polygon fill="#03708A" points="1658.3,810.1 1503.1,1054.7 1347.9,810.1 			"/>
			<polygon fill="#8E7A99" points="-203.7,1299.2 -48.5,1054.7 106.6,1299.2 			"/>
			<polygon fill="#806E8B" points="261.8,1054.7 106.6,1299.2 -48.5,1054.7 			"/>
			<polygon fill="#7B7E9E" points="106.6,1299.2 261.8,1054.7 417,1299.2 			"/>
			<polygon fill="#9680A1" points="572.1,1054.7 417,1299.2 261.8,1054.7 			"/>
			<polygon fill="#0082A0" points="417,1299.2 572.1,1054.7 727.3,1299.2 			"/>
			<polygon fill="#0088A7" points="882.4,1054.7 727.3,1299.2 572.1,1054.7 			"/>
			<polygon fill="#03708A" points="727.3,1299.2 882.4,1054.7 1037.6,1299.2 			"/>
			<polygon fill="#005A70" points="1192.8,1054.7 1037.6,1299.2 882.4,1054.7 			"/>
			<polygon fill="#006780" points="1037.6,1299.2 1192.8,1054.7 1347.9,1299.2 			"/>
			<polygon fill="#03708A" points="1503.1,1054.7 1347.9,1299.2 1192.8,1054.7 			"/>
			<polygon fill="#006780" points="1347.9,1299.2 1503.1,1054.7 1658.3,1299.2 			"/>
			<polygon fill="#806E8B" points="106.6,1299.2 -48.5,1543.8 -203.7,1299.2 			"/>
			<polygon fill="#806E8B" points="-48.5,1543.8 106.6,1299.2 261.8,1543.8 			"/>
			<polygon fill="#73627D" points="417,1299.2 261.8,1543.8 106.6,1299.2 			"/>
			<polygon fill="#8E6982" points="261.8,1543.8 417,1299.2 572.1,1543.8 			"/>
			<polygon fill="#677D9C" points="727.3,1299.2 572.1,1543.8 417,1299.2 			"/>
			<polygon fill="#0082A0" points="572.1,1543.8 727.3,1299.2 882.4,1543.8 			"/>
			<polygon fill="#037590" points="1037.6,1299.2 882.4,1543.8 727.3,1299.2 			"/>
			<polygon fill="#006780" points="882.4,1543.8 1037.6,1299.2 1192.8,1543.8 			"/>
			<polygon fill="#03708A" points="1347.9,1299.2 1192.8,1543.8 1037.6,1299.2 			"/>
			<polygon fill="#006780" points="1192.8,1543.8 1347.9,1299.2 1503.1,1543.8 			"/>
			<polygon fill="#005A70" points="1658.3,1299.2 1503.1,1543.8 1347.9,1299.2 			"/>
		</g>
		<g>
			<polygon fill="#168C73" points="2760.3,225.3 2605.1,-19.2 2450,225.3 			"/>
			<polygon fill="#158970" points="2294.8,-19.2 2450,225.3 2605.1,-19.2 			"/>
			<polygon fill="#0D7C79" points="2450,225.3 2294.8,-19.2 2139.6,225.3 			"/>
			<polygon fill="#7C9869" points="1984.5,-19.2 2139.6,225.3 2294.8,-19.2 			"/>
			<polygon fill="#158970" points="2139.6,225.3 1984.5,-19.2 1829.3,225.3 			"/>
			<polygon fill="#C6863A" points="1674.1,-19.2 1829.3,225.3 1984.5,-19.2 			"/>
			<polygon fill="#D18136" points="1829.3,225.3 1674.1,-19.2 1519,225.3 			"/>
			<polygon fill="#CA6128" points="1363.8,-19.2 1519,225.3 1674.1,-19.2 			"/>
			<polygon fill="#C68539" points="1519,225.3 1363.8,-19.2 1208.6,225.3 			"/>
			<polygon fill="#029679" points="2450,225.3 2605.1,469.9 2760.3,225.3 			"/>
			<polygon fill="#037B98" points="2605.1,469.9 2450,225.3 2294.8,469.9 			"/>
			<polygon fill="#03708A" points="2139.6,225.3 2294.8,469.9 2450,225.3 			"/>
			<polygon fill="#006780" points="2294.8,469.9 2139.6,225.3 1984.5,469.9 			"/>
			<polygon fill="#13846C" points="1829.3,225.3 1984.5,469.9 2139.6,225.3 			"/>
			<polygon fill="#179177" points="1984.5,469.9 1829.3,225.3 1674.1,469.9 			"/>
			<polygon fill="#CA6128" points="1519,225.3 1674.1,469.9 1829.3,225.3 			"/>
			<polygon fill="#C6863A" points="1674.1,469.9 1519,225.3 1363.8,469.9 			"/>
			<polygon fill="#CD6E2C" points="1208.6,225.3 1363.8,469.9 1519,225.3 			"/>
			<polygon fill="#0088A7" points="2760.3,714.4 2605.1,469.9 2450,714.4 			"/>
			<polygon fill="#03708A" points="2294.8,469.9 2450,714.4 2605.1,469.9 			"/>
			<polygon fill="#006780" points="2450,714.4 2294.8,469.9 2139.6,714.4 			"/>
			<polygon fill="#03708A" points="1984.5,469.9 2139.6,714.4 2294.8,469.9 			"/>
			<polygon fill="#037590" points="2139.6,714.4 1984.5,469.9 1829.3,714.4 			"/>
			<polygon fill="#0C7B7A" points="1674.1,469.9 1829.3,714.4 1984.5,469.9 			"/>
			<polygon fill="#037590" points="1829.3,714.4 1674.1,469.9 1519,714.4 			"/>
			<polygon fill="#005A70" points="1363.8,469.9 1519,714.4 1674.1,469.9 			"/>
			<polygon fill="#03708A" points="1519,714.4 1363.8,469.9 1208.6,714.4 			"/>
			<polygon fill="#806E8B" points="2450,714.4 2605.1,959 2760.3,714.4 			"/>
			<polygon fill="#7B7E9E" points="2605.1,959 2450,714.4 2294.8,959 			"/>
			<polygon fill="#03708A" points="2139.6,714.4 2294.8,959 2450,714.4 			"/>
			<polygon fill="#037590" points="2294.8,959 2139.6,714.4 1984.5,959 			"/>
			<polygon fill="#037B98" points="1829.3,714.4 1984.5,959 2139.6,714.4 			"/>
			<polygon fill="#037590" points="1984.5,959 1829.3,714.4 1674.1,959 			"/>
			<polygon fill="#005A70" points="1519,714.4 1674.1,959 1829.3,714.4 			"/>
			<polygon fill="#006780" points="1674.1,959 1519,714.4 1363.8,959 			"/>
			<polygon fill="#03708A" points="1208.6,714.4 1363.8,959 1519,714.4 			"/>
			<polygon fill="#7B7E9E" points="2760.3,1203.5 2605.1,959 2450,1203.5 			"/>
			<polygon fill="#9680A1" points="2294.8,959 2450,1203.5 2605.1,959 			"/>
			<polygon fill="#0082A0" points="2450,1203.5 2294.8,959 2139.6,1203.5 			"/>
			<polygon fill="#0088A7" points="1984.5,959 2139.6,1203.5 2294.8,959 			"/>
			<polygon fill="#03708A" points="2139.6,1203.5 1984.5,959 1829.3,1203.5 			"/>
			<polygon fill="#005A70" points="1674.1,959 1829.3,1203.5 1984.5,959 			"/>
			<polygon fill="#006780" points="1829.3,1203.5 1674.1,959 1519,1203.5 			"/>
			<polygon fill="#03708A" points="1363.8,959 1519,1203.5 1674.1,959 			"/>
			<polygon fill="#006780" points="1519,1203.5 1363.8,959 1208.6,1203.5 			"/>
			<polygon fill="#73627D" points="2450,1203.5 2605.1,1448.1 2760.3,1203.5 			"/>
			<polygon fill="#8E6982" points="2605.1,1448.1 2450,1203.5 2294.8,1448.1 			"/>
			<polygon fill="#677D9C" points="2139.6,1203.5 2294.8,1448.1 2450,1203.5 			"/>
			<polygon fill="#0082A0" points="2294.8,1448.1 2139.6,1203.5 1984.5,1448.1 			"/>
			<polygon fill="#037590" points="1829.3,1203.5 1984.5,1448.1 2139.6,1203.5 			"/>
			<polygon fill="#006780" points="1984.5,1448.1 1829.3,1203.5 1674.1,1448.1 			"/>
			<polygon fill="#03708A" points="1519,1203.5 1674.1,1448.1 1829.3,1203.5 			"/>
			<polygon fill="#006780" points="1674.1,1448.1 1519,1203.5 1363.8,1448.1 			"/>
			<polygon fill="#005A70" points="1208.6,1203.5 1363.8,1448.1 1519,1203.5 			"/>
		</g>
		<g opacity="0.3">
			<polygon fill="#158970" points="2527.5,-141.5 2682.7,103 2837.9,-141.5 			"/>
			<polygon fill="#0D7C79" points="2682.7,103 2527.5,-141.5 2372.4,103 			"/>
			<polygon fill="#7C9869" points="2217.2,-141.5 2372.4,103 2527.5,-141.5 			"/>
			<polygon fill="#158970" points="2372.4,103 2217.2,-141.5 2062,103 			"/>
			<polygon fill="#C6863A" points="1906.9,-141.5 2062,103 2217.2,-141.5 			"/>
			<polygon fill="#D18136" points="2062,103 1906.9,-141.5 1751.7,103 			"/>
			<polygon fill="#CA6128" points="1596.6,-141.5 1751.7,103 1906.9,-141.5 			"/>
			<polygon fill="#C68539" points="1751.7,103 1596.6,-141.5 1441.4,103 			"/>
			<polygon fill="#037B98" points="2837.9,347.6 2682.7,103 2527.5,347.6 			"/>
			<polygon fill="#03708A" points="2372.4,103 2527.5,347.6 2682.7,103 			"/>
			<polygon fill="#006780" points="2527.5,347.6 2372.4,103 2217.2,347.6 			"/>
			<polygon fill="#13846C" points="2062,103 2217.2,347.6 2372.4,103 			"/>
			<polygon fill="#179177" points="2217.2,347.6 2062,103 1906.9,347.6 			"/>
			<polygon fill="#CA6128" points="1751.7,103 1906.9,347.6 2062,103 			"/>
			<polygon fill="#C6863A" points="1906.9,347.6 1751.7,103 1596.6,347.6 			"/>
			<polygon fill="#CD6E2C" points="1441.4,103 1596.6,347.6 1751.7,103 			"/>
			<polygon fill="#03708A" points="2527.5,347.6 2682.7,592.2 2837.9,347.6 			"/>
			<polygon fill="#006780" points="2682.7,592.2 2527.5,347.6 2372.4,592.2 			"/>
			<polygon fill="#03708A" points="2217.2,347.6 2372.4,592.2 2527.5,347.6 			"/>
			<polygon fill="#037590" points="2372.4,592.2 2217.2,347.6 2062,592.2 			"/>
			<polygon fill="#0C7B7A" points="1906.9,347.6 2062,592.2 2217.2,347.6 			"/>
			<polygon fill="#037590" points="2062,592.2 1906.9,347.6 1751.7,592.2 			"/>
			<polygon fill="#005A70" points="1596.6,347.6 1751.7,592.2 1906.9,347.6 			"/>
			<polygon fill="#03708A" points="1751.7,592.2 1596.6,347.6 1441.4,592.2 			"/>
			<polygon fill="#7B7E9E" points="2837.9,836.7 2682.7,592.2 2527.5,836.7 			"/>
			<polygon fill="#03708A" points="2372.4,592.2 2527.5,836.7 2682.7,592.2 			"/>
			<polygon fill="#037590" points="2527.5,836.7 2372.4,592.2 2217.2,836.7 			"/>
			<polygon fill="#037B98" points="2062,592.2 2217.2,836.7 2372.4,592.2 			"/>
			<polygon fill="#037590" points="2217.2,836.7 2062,592.2 1906.9,836.7 			"/>
			<polygon fill="#005A70" points="1751.7,592.2 1906.9,836.7 2062,592.2 			"/>
			<polygon fill="#006780" points="1906.9,836.7 1751.7,592.2 1596.6,836.7 			"/>
			<polygon fill="#03708A" points="1441.4,592.2 1596.6,836.7 1751.7,592.2 			"/>
			<polygon fill="#9680A1" points="2527.5,836.7 2682.7,1081.3 2837.9,836.7 			"/>
			<polygon fill="#0082A0" points="2682.7,1081.3 2527.5,836.7 2372.4,1081.3 			"/>
			<polygon fill="#0088A7" points="2217.2,836.7 2372.4,1081.3 2527.5,836.7 			"/>
			<polygon fill="#03708A" points="2372.4,1081.3 2217.2,836.7 2062,1081.3 			"/>
			<polygon fill="#005A70" points="1906.9,836.7 2062,1081.3 2217.2,836.7 			"/>
			<polygon fill="#006780" points="2062,1081.3 1906.9,836.7 1751.7,1081.3 			"/>
			<polygon fill="#03708A" points="1596.6,836.7 1751.7,1081.3 1906.9,836.7 			"/>
			<polygon fill="#006780" points="1751.7,1081.3 1596.6,836.7 1441.4,1081.3 			"/>
			<polygon fill="#8E6982" points="2837.9,1325.8 2682.7,1081.3 2527.5,1325.8 			"/>
			<polygon fill="#677D9C" points="2372.4,1081.3 2527.5,1325.8 2682.7,1081.3 			"/>
			<polygon fill="#0082A0" points="2527.5,1325.8 2372.4,1081.3 2217.2,1325.8 			"/>
			<polygon fill="#037590" points="2062,1081.3 2217.2,1325.8 2372.4,1081.3 			"/>
			<polygon fill="#006780" points="2217.2,1325.8 2062,1081.3 1906.9,1325.8 			"/>
			<polygon fill="#03708A" points="1751.7,1081.3 1906.9,1325.8 2062,1081.3 			"/>
			<polygon fill="#006780" points="1906.9,1325.8 1751.7,1081.3 1596.6,1325.8 			"/>
			<polygon fill="#005A70" points="1441.4,1081.3 1596.6,1325.8 1751.7,1081.3 			"/>
		</g>
		<g opacity="0.5">
			<polygon fill="#158970" points="2774.1,76.5 2619,-168.1 2463.8,76.5 			"/>
			<polygon fill="#08808E" points="2308.7,-168.1 2463.8,76.5 2619,-168.1 			"/>
			<polygon fill="#037B98" points="2463.8,76.5 2308.7,-168.1 2153.5,76.5 			"/>
			<polygon fill="#005A70" points="1998.3,-168.1 2153.5,76.5 2308.7,-168.1 			"/>
			<polygon fill="#879A67" points="2153.5,76.5 1998.3,-168.1 1843.2,76.5 			"/>
			<polygon fill="#C7873A" points="1688,-168.1 1843.2,76.5 1998.3,-168.1 			"/>
			<polygon fill="#DDAE53" points="1843.2,76.5 1688,-168.1 1532.8,76.5 			"/>
			<polygon fill="#CDA24D" points="1377.7,-168.1 1532.8,76.5 1688,-168.1 			"/>
			<polygon fill="#C68539" points="1532.8,76.5 1377.7,-168.1 1222.5,76.5 			"/>
			<polygon fill="#CA6128" points="1067.3,-168.1 1222.5,76.5 1377.7,-168.1 			"/>
			<polygon fill="#179177" points="2463.8,76.5 2619,321 2774.1,76.5 			"/>
			<polygon fill="#168C73" points="2619,321 2463.8,76.5 2308.7,321 			"/>
			<polygon fill="#158970" points="2153.5,76.5 2308.7,321 2463.8,76.5 			"/>
			<polygon fill="#0D7C79" points="2308.7,321 2153.5,76.5 1998.3,321 			"/>
			<polygon fill="#7C9869" points="1843.2,76.5 1998.3,321 2153.5,76.5 			"/>
			<polygon fill="#158970" points="1998.3,321 1843.2,76.5 1688,321 			"/>
			<polygon fill="#C6863A" points="1532.8,76.5 1688,321 1843.2,76.5 			"/>
			<polygon fill="#D18136" points="1688,321 1532.8,76.5 1377.7,321 			"/>
			<polygon fill="#CA6128" points="1222.5,76.5 1377.7,321 1532.8,76.5 			"/>
			<polygon fill="#C68539" points="1377.7,321 1222.5,76.5 1067.3,321 			"/>
			<polygon fill="#0A797E" points="2774.1,565.6 2619,321 2463.8,565.6 			"/>
			<polygon fill="#029679" points="2308.7,321 2463.8,565.6 2619,321 			"/>
			<polygon fill="#037B98" points="2463.8,565.6 2308.7,321 2153.5,565.6 			"/>
			<polygon fill="#03708A" points="1998.3,321 2153.5,565.6 2308.7,321 			"/>
			<polygon fill="#006780" points="2153.5,565.6 1998.3,321 1843.2,565.6 			"/>
			<polygon fill="#13846C" points="1688,321 1843.2,565.6 1998.3,321 			"/>
			<polygon fill="#179177" points="1843.2,565.6 1688,321 1532.8,565.6 			"/>
			<polygon fill="#CA6128" points="1377.7,321 1532.8,565.6 1688,321 			"/>
			<polygon fill="#C6863A" points="1532.8,565.6 1377.7,321 1222.5,565.6 			"/>
			<polygon fill="#CD6E2C" points="1067.3,321 1222.5,565.6 1377.7,321 			"/>
			<polygon fill="#73627D" points="2463.8,565.6 2619,810.1 2774.1,565.6 			"/>
			<polygon fill="#0088A7" points="2619,810.1 2463.8,565.6 2308.7,810.1 			"/>
			<polygon fill="#03708A" points="2153.5,565.6 2308.7,810.1 2463.8,565.6 			"/>
			<polygon fill="#006780" points="2308.7,810.1 2153.5,565.6 1998.3,810.1 			"/>
			<polygon fill="#03708A" points="1843.2,565.6 1998.3,810.1 2153.5,565.6 			"/>
			<polygon fill="#037590" points="1998.3,810.1 1843.2,565.6 1688,810.1 			"/>
			<polygon fill="#0C7B7A" points="1532.8,565.6 1688,810.1 1843.2,565.6 			"/>
			<polygon fill="#037590" points="1688,810.1 1532.8,565.6 1377.7,810.1 			"/>
			<polygon fill="#005A70" points="1222.5,565.6 1377.7,810.1 1532.8,565.6 			"/>
			<polygon fill="#03708A" points="1377.7,810.1 1222.5,565.6 1067.3,810.1 			"/>
			<polygon fill="#677D9C" points="2774.1,1054.7 2619,810.1 2463.8,1054.7 			"/>
			<polygon fill="#806E8B" points="2308.7,810.1 2463.8,1054.7 2619,810.1 			"/>
			<polygon fill="#7B7E9E" points="2463.8,1054.7 2308.7,810.1 2153.5,1054.7 			"/>
			<polygon fill="#03708A" points="1998.3,810.1 2153.5,1054.7 2308.7,810.1 			"/>
			<polygon fill="#037590" points="2153.5,1054.7 1998.3,810.1 1843.2,1054.7 			"/>
			<polygon fill="#037B98" points="1688,810.1 1843.2,1054.7 1998.3,810.1 			"/>
			<polygon fill="#037590" points="1843.2,1054.7 1688,810.1 1532.8,1054.7 			"/>
			<polygon fill="#005A70" points="1377.7,810.1 1532.8,1054.7 1688,810.1 			"/>
			<polygon fill="#006780" points="1532.8,1054.7 1377.7,810.1 1222.5,1054.7 			"/>
			<polygon fill="#03708A" points="1067.3,810.1 1222.5,1054.7 1377.7,810.1 			"/>
			<polygon fill="#806E8B" points="2463.8,1054.7 2619,1299.2 2774.1,1054.7 			"/>
			<polygon fill="#7B7E9E" points="2619,1299.2 2463.8,1054.7 2308.7,1299.2 			"/>
			<polygon fill="#9680A1" points="2153.5,1054.7 2308.7,1299.2 2463.8,1054.7 			"/>
			<polygon fill="#0082A0" points="2308.7,1299.2 2153.5,1054.7 1998.3,1299.2 			"/>
			<polygon fill="#0088A7" points="1843.2,1054.7 1998.3,1299.2 2153.5,1054.7 			"/>
			<polygon fill="#03708A" points="1998.3,1299.2 1843.2,1054.7 1688,1299.2 			"/>
			<polygon fill="#005A70" points="1532.8,1054.7 1688,1299.2 1843.2,1054.7 			"/>
			<polygon fill="#006780" points="1688,1299.2 1532.8,1054.7 1377.7,1299.2 			"/>
			<polygon fill="#03708A" points="1222.5,1054.7 1377.7,1299.2 1532.8,1054.7 			"/>
			<polygon fill="#006780" points="1377.7,1299.2 1222.5,1054.7 1067.3,1299.2 			"/>
			<polygon fill="#806E8B" points="2774.1,1543.8 2619,1299.2 2463.8,1543.8 			"/>
			<polygon fill="#73627D" points="2308.7,1299.2 2463.8,1543.8 2619,1299.2 			"/>
			<polygon fill="#8E6982" points="2463.8,1543.8 2308.7,1299.2 2153.5,1543.8 			"/>
			<polygon fill="#677D9C" points="1998.3,1299.2 2153.5,1543.8 2308.7,1299.2 			"/>
			<polygon fill="#0082A0" points="2153.5,1543.8 1998.3,1299.2 1843.2,1543.8 			"/>
			<polygon fill="#037590" points="1688,1299.2 1843.2,1543.8 1998.3,1299.2 			"/>
			<polygon fill="#006780" points="1843.2,1543.8 1688,1299.2 1532.8,1543.8 			"/>
			<polygon fill="#03708A" points="1377.7,1299.2 1532.8,1543.8 1688,1299.2 			"/>
			<polygon fill="#006780" points="1532.8,1543.8 1377.7,1299.2 1222.5,1543.8 			"/>
			<polygon fill="#005A70" points="1067.3,1299.2 1222.5,1543.8 1377.7,1299.2 			"/>
		</g>
	</g>
</g>
<g display="none">
	<defs>
		<rect id="SVGID_3_" x="-1.3" width="2561.3" height="1440"/>
	</defs>
	<clipPath id="SVGID_4_" display="inline">
		<use xlink:href="#SVGID_3_"  overflow="visible"/>
	</clipPath>
	<g display="inline" clip-path="url(#SVGID_4_)">
		<path fill="none" d="M1889.7,821c-29.1,50.3-83.2,81.6-141.4,81.6c-12.5,0-25-1.5-37.2-4.3c-10.7,43.7-16.3,89-16.3,135.1
			c0,46.1,5.5,91.4,16.3,135.1c12.2-2.9,24.6-4.3,37.2-4.3c58.2,0,112.3,31.3,141.4,81.6c36.7,63.7,25.6,142-22.3,193.1
			c66.8,64.4,146.8,110.3,233.9,135.3c20.2-67.1,82.6-116.1,156.2-116.1s135.9,49,156.2,116.1c87-25,167-70.9,233.9-135.3
			c-47.8-51.1-59-129.4-22.3-193.1c29.1-50.3,83.2-81.6,141.4-81.6c12.5,0,25,1.5,37.2,4.3c10.7-43.7,16.3-89,16.3-135.1
			c0-46.1-5.5-91.4-16.3-135.1c-12.2,2.9-24.6,4.3-37.2,4.3c-58.2,0-112.3-31.3-141.4-81.6c-21.8-37.7-27.6-81.7-16.3-123.8
			c7.1-26.4,20.3-50,38.5-69.4c-66.8-64.3-146.8-110.2-233.8-135.2c-20.2,67.1-82.6,116.1-156.2,116.1s-135.9-49-156.2-116.1
			c-87,25-167,70.9-233.8,135.2c18.2,19.4,31.4,43,38.5,69.4C1917.2,739.3,1911.4,783.2,1889.7,821z"/>
		<path fill="#FFFFFF" d="M1664,878.9c-12.9,49.8-19.5,101.6-19.5,154.4c0,52.8,6.7,104.6,19.5,154.4
			c-75.7,45.7-101.3,144.2-56.9,221.1c29.1,50.3,83.2,81.6,141.4,81.6c27.5,0,54.6-7.1,78.8-20.4c75.6,74.6,167.3,127.1,267.1,154.5
			c1.8,88.4,74.2,159.8,163,159.8s161.2-71.4,163-159.8c99.8-27.4,191.4-80,267.1-154.5c24.1,13.3,51.3,20.4,78.8,20.4
			c58.2,0,112.3-31.3,141.4-81.6c44.4-76.9,18.8-175.3-56.9-221.1c12.9-49.8,19.5-101.6,19.5-154.4c0-52.8-6.7-104.6-19.5-154.4
			c75.7-45.7,101.3-144.2,56.9-221.1c-29.1-50.3-83.2-81.6-141.4-81.6c-27.5,0-54.6,7.1-78.8,20.4
			c-75.6-74.6-167.3-127.1-267.1-154.5c-1.8-88.4-74.2-159.8-163-159.8s-161.2,71.4-163,159.8c-99.8,27.4-191.4,80-267.1,154.5
			c-24.1-13.3-51.3-20.4-78.8-20.4c-58.2,0-112.3,31.3-141.4,81.6C1562.7,734.8,1588.4,833.2,1664,878.9z M1748.5,626.6
			c14.7,0,29.3,2.9,42.9,8.5c4.6,1.9,9.1,4.1,13.4,6.6c10.6,6.1,19.9,13.8,27.8,22.6c11.6,13,20.1,28.6,24.7,45.8
			c7.8,29.1,3.8,59.5-11.3,85.6c-20.1,34.8-57.6,56.4-97.8,56.4c-7.7,0-15.4-0.8-23-2.4c-11.6-2.4-22.9-6.7-33.3-12.7
			c-4.5-2.6-8.7-5.4-12.6-8.5c-43.9-34-57.2-96.2-28.6-145.6C1670.8,648.2,1708.3,626.6,1748.5,626.6z M1832.6,1402.2
			c-7.8,8.8-17.1,16.5-27.8,22.7c-4.3,2.5-8.8,4.7-13.4,6.6c-13.6,5.6-28.2,8.5-42.9,8.5c-40.2,0-77.7-21.6-97.8-56.4
			c-15.1-26.1-19.1-56.5-11.3-85.6c6.5-24.1,20.4-45,39.9-60c4-3.1,8.2-5.9,12.6-8.5c10.4-6,21.7-10.3,33.3-12.7
			c7.5-1.6,15.2-2.4,23-2.4c40.2,0,77.7,21.6,97.8,56.4C1871,1313.9,1864,1366.8,1832.6,1402.2z M2369.2,1636.1
			c-7.4,55.1-54.7,97.8-111.8,97.8c-57.1,0-104.4-42.7-111.8-97.8c-0.7-4.9-1-9.9-1-15c0-12.3,2-24.2,5.7-35.3
			c14.9-44.9,57.2-77.5,107.1-77.5s92.2,32.5,107.1,77.5c3.7,11.1,5.7,23,5.7,35.3C2370.2,1626.2,2369.8,1631.2,2369.2,1636.1z
			 M2710.1,641.7c4.3-2.5,8.8-4.7,13.4-6.6c13.6-5.6,28.2-8.5,42.9-8.5c40.2,0,77.7,21.6,97.8,56.4c15.1,26.1,19.1,56.5,11.3,85.6
			c-6.5,24.1-20.4,45-39.9,60c-4,3.1-8.2,5.9-12.6,8.5c-10.4,6-21.7,10.3-33.3,12.7c-7.5,1.6-15.2,2.4-23,2.4
			c-40.2,0-77.7-21.6-97.8-56.4c-15.1-26.1-19.1-56.5-11.3-85.6c4.6-17.3,13.1-32.9,24.7-45.8
			C2690.1,655.5,2699.5,647.9,2710.1,641.7z M2766.3,1440c-14.7,0-29.3-2.9-42.9-8.5c-4.6-1.9-9.1-4.1-13.4-6.6
			c-10.7-6.2-20-13.9-27.8-22.7c-31.4-35.3-38.4-88.2-13.5-131.4c20.1-34.8,57.6-56.4,97.8-56.4c7.7,0,15.4,0.8,23,2.4
			c11.6,2.4,22.9,6.7,33.3,12.7c4.5,2.6,8.7,5.4,12.6,8.5c43.9,34,57.2,96.2,28.6,145.6C2844,1418.4,2806.5,1440,2766.3,1440z
			 M2145.7,430.5c7.4-55.1,54.7-97.8,111.8-97.8c57.1,0,104.4,42.7,111.8,97.8c0.7,4.9,1,9.9,1,15c0,12.3-2,24.2-5.7,35.3
			c-14.9,44.9-57.2,77.5-107.1,77.5s-92.2-32.5-107.1-77.5c-3.7-11.1-5.7-23-5.7-35.3C2144.6,440.4,2145,435.4,2145.7,430.5z
			 M2101.3,492.6c20.2,67.1,82.6,116.1,156.2,116.1s135.9-49,156.2-116.1c87,25,167,70.9,233.8,135.2c-18.2,19.4-31.4,43-38.5,69.4
			c-11.3,42.1-5.5,86,16.3,123.8c29.1,50.3,83.2,81.6,141.4,81.6c12.5,0,25-1.5,37.2-4.3c10.7,43.7,16.3,89,16.3,135.1
			c0,46.1-5.5,91.4-16.3,135.1c-12.2-2.9-24.6-4.3-37.2-4.3c-58.2,0-112.3,31.3-141.4,81.6c-36.7,63.7-25.6,142,22.3,193.1
			c-66.8,64.4-146.8,110.3-233.9,135.3c-20.2-67.1-82.6-116.1-156.2-116.1s-135.9,49-156.2,116.1c-87-25-167-70.9-233.9-135.3
			c47.8-51.1,59-129.4,22.3-193.1c-29.1-50.3-83.2-81.6-141.4-81.6c-12.5,0-25,1.5-37.2,4.3c-10.7-43.7-16.3-89-16.3-135.1
			c0-46.1,5.5-91.4,16.3-135.1c12.2,2.9,24.6,4.3,37.2,4.3c58.2,0,112.3-31.3,141.4-81.6c21.8-37.7,27.6-81.7,16.3-123.8
			c-7.1-26.4-20.3-50-38.5-69.4C1934.3,563.5,2014.3,517.6,2101.3,492.6z"/>
	</g>
</g>
<radialGradient id="SVGID_6_" cx="1507.3555" cy="938.7038" r="1212.0659" gradientTransform="matrix(0.9533 0 0 0.9743 -157.037 -193.0155)" gradientUnits="userSpaceOnUse">
	<stop  offset="0" style="stop-color:#037B98;stop-opacity:0"/>
	<stop  offset="1" style="stop-color:#037B98"/>
</radialGradient>
<rect y="1" display="none" opacity="0.7" fill="url(#SVGID_6_)" width="2560" height="1441.2"/>
<radialGradient id="SVGID_7_" cx="1507.3555" cy="938.7038" r="1083.8903" gradientTransform="matrix(0.9533 0 0 0.9743 -157.037 -193.0155)" gradientUnits="userSpaceOnUse">
	<stop  offset="0" style="stop-color:#037B98"/>
	<stop  offset="1" style="stop-color:#037B98;stop-opacity:0"/>
</radialGradient>
<rect y="1" display="none" fill="url(#SVGID_7_)" width="2560" height="1441.2"/>
</svg>
