<?xml version="1.0" encoding="utf-8"?>
<!-- Generator: Adobe Illustrator 18.1.1, SVG Export Plug-In . SVG Version: 6.00 Build 0)  -->
<svg version="1.1" id="Layer_1" xmlns="http://www.w3.org/2000/svg" xmlns:xlink="http://www.w3.org/1999/xlink" x="0px" y="0px"
	 viewBox="0 0 410 108.4" enable-background="new 0 0 410 108.4" xml:space="preserve">
<path fill="#FFFFFF" d="M15.1,40.2v-0.1c0-10.1,7.9-18.4,18.6-18.4c6.4,0,10.2,1.7,13.9,4.9l-4.9,5.9C40,30.3,37.6,29,33.4,29
	c-5.7,0-10.2,5-10.2,11.1v0.1c0,6.5,4.5,11.3,10.7,11.3c2.8,0,5.4-0.7,7.4-2.1v-5.1h-7.9v-6.7h15.4v15.4c-3.6,3.1-8.7,5.6-15.2,5.6
	C22.7,58.5,15.1,50.7,15.1,40.2"/>
<path fill="#FFFFFF" d="M53.2,20.9h8.1v6.8h-8.1V20.9z M53.4,30.7h7.7v27.2h-7.7V30.7z"/>
<path fill="#FFFFFF" d="M65.8,30.7h7.7v5.5c1.6-3.8,4.1-6.2,8.7-6v8.1h-0.4c-5.1,0-8.3,3.1-8.3,9.6v10h-7.7V30.7z"/>
<rect x="84.9" y="20.9" fill="#FFFFFF" width="7.7" height="37"/>
<path fill="#FFFFFF" d="M110.8,22.4h13.8c11.2,0,18.9,7.7,18.9,17.6v0.1c0,10-7.7,17.7-18.9,17.7h-13.8V22.4z M118.6,29.4v21.4h6
	c6.4,0,10.7-4.3,10.7-10.6v-0.1c0-6.3-4.3-10.7-10.7-10.7H118.6z"/>
<path fill="#FFFFFF" d="M145.7,44.4v-0.1c0-7.8,5.5-14.1,13.4-14.1c9.1,0,13.2,7,13.2,14.8c0,0.6-0.1,1.3-0.1,2h-18.9
	c0.8,3.5,3.2,5.3,6.6,5.3c2.6,0,4.5-0.8,6.6-2.8l4.4,3.9c-2.5,3.1-6.2,5.1-11.1,5.1C151.8,58.5,145.7,52.7,145.7,44.4 M164.9,42.1
	c-0.5-3.4-2.5-5.8-5.7-5.8c-3.2,0-5.3,2.3-5.9,5.8H164.9z"/>
<polygon fill="#FFFFFF" points="171.9,30.7 180.1,30.7 186.2,48.9 192.3,30.7 200.3,30.7 189.6,58.1 182.6,58.1 "/>
<path fill="#FFFFFF" d="M199.4,44.4v-0.1c0-7.8,5.5-14.1,13.4-14.1c9.1,0,13.2,7,13.2,14.8c0,0.6,0,1.3-0.1,2H207
	c0.8,3.5,3.2,5.3,6.6,5.3c2.6,0,4.5-0.8,6.6-2.8l4.4,3.9c-2.5,3.1-6.2,5.1-11.1,5.1C205.4,58.5,199.4,52.7,199.4,44.4 M218.6,42.1
	c-0.5-3.4-2.5-5.8-5.7-5.8c-3.2,0-5.3,2.3-5.9,5.8H218.6z"/>
<rect x="229.6" y="20.9" fill="#FFFFFF" width="7.7" height="37"/>
<path fill="#FFFFFF" d="M240.7,44.4v-0.1c0-7.8,6.3-14.1,14.8-14.1c8.4,0,14.7,6.2,14.7,14v0.1c0,7.8-6.3,14.1-14.8,14.1
	C246.9,58.5,240.7,52.2,240.7,44.4 M262.5,44.4v-0.1c0-4-2.9-7.5-7.1-7.5c-4.4,0-7,3.4-7,7.4v0.1c0,4,2.9,7.5,7.1,7.5
	C259.9,51.8,262.5,48.4,262.5,44.4"/>
<path fill="#FFFFFF" d="M273.2,30.7h7.7v3.9c1.9-2.5,4.5-4.4,8.5-4.4c6.3,0,12.4,5,12.4,14v0.1c0,9.1-5.9,14-12.4,14
	c-4.1,0-6.6-1.9-8.5-4.1V66h-7.7V30.7z M294,44.3v-0.1c0-4.5-3-7.5-6.6-7.5c-3.6,0-6.6,3-6.6,7.5v0.1c0,4.5,3,7.5,6.6,7.5
	C290.9,51.8,294,48.9,294,44.3"/>
<rect x="318.7" y="22.4" fill="#FFFFFF" width="7.8" height="35.5"/>
<path fill="#FFFFFF" d="M333.3,50.2V37.3H330v-6.6h3.2v-6.9h7.7v6.9h6.4v6.6H341v11.6c0,1.8,0.8,2.6,2.5,2.6c1.4,0,2.7-0.4,3.8-1
	v6.2c-1.6,1-3.5,1.6-6.1,1.6C336.5,58.3,333.3,56.4,333.3,50.2"/>
<path fill="#FFFFFF" d="M160.6,87.1c-0.5,0.4-1,0.8-1.5,1.1c-0.2,0.1-0.4,0.3-0.6,0.4c-0.2,0.1-0.4,0.2-0.7,0.3
	c-0.2,0.1-0.4,0.2-0.6,0.2s-0.4,0.1-0.6,0.1c-0.1,0-0.2,0-0.4-0.1c-0.2,0-0.4-0.1-0.6-0.3c-0.2-0.1-0.5-0.3-0.7-0.6
	c-0.2-0.3-0.4-0.6-0.6-1c-0.3,0.3-0.5,0.5-0.8,0.8c-0.3,0.2-0.6,0.4-0.9,0.6c-0.3,0.2-0.6,0.3-0.9,0.4c-0.3,0.1-0.6,0.2-1,0.2
	c-0.5,0-0.8-0.1-1.2-0.3c-0.3-0.2-0.6-0.4-0.8-0.7c-0.2-0.3-0.4-0.7-0.5-1.1c-0.1-0.4-0.2-0.8-0.2-1.2c0-0.5,0.1-0.9,0.2-1.4
	c0.1-0.5,0.3-0.9,0.5-1.3c0.2-0.4,0.5-0.9,0.7-1.4c0.3-0.5,0.6-0.9,1.1-1.3c0.4-0.4,0.9-0.7,1.4-0.9c0.5-0.2,1-0.3,1.5-0.4
	c0-0.9,0.1-1.7,0.3-2.4c0.2-0.7,0.4-1.4,0.6-2.2c0.2-0.8,0.5-1.5,0.8-2.2c0.3-0.7,0.7-1.2,1-1.7c0.4-0.5,0.8-0.9,1.2-1.1
	c0.4-0.3,0.9-0.4,1.3-0.4c0.3,0,0.6,0.1,0.8,0.3c0.2,0.2,0.4,0.4,0.6,0.7c0.1,0.3,0.2,0.6,0.3,1c0.1,0.4,0.1,0.8,0.1,1.2
	c0,0.2,0,0.5,0,0.8c0,1-0.2,1.9-0.5,2.8c-0.3,0.9-0.6,1.7-0.9,2.5c-0.3,0.8-0.6,1.7-1,2.5c-0.6,1.3-1,2.1-1.2,2.6
	c0,0.1-0.1,0.2-0.1,0.4c0,0.1-0.1,0.3-0.1,0.5c0,0.2-0.1,0.3-0.1,0.5c0,0.2,0,0.3,0,0.5c0,0.2,0,0.4,0,0.6c0,0.2,0.1,0.3,0.1,0.5
	c0.1,0.1,0.1,0.3,0.2,0.3c0.1,0.1,0.2,0.1,0.3,0.1c0.1,0,0.3,0,0.4-0.1c0.2-0.1,0.3-0.1,0.5-0.2c0.2-0.1,0.3-0.2,0.5-0.3
	c0.2-0.1,0.3-0.2,0.5-0.4c0.4-0.3,0.8-0.6,1.2-1L160.6,87.1z M153.4,81c-0.5,0.2-0.9,0.5-1.2,0.9c-0.4,0.4-0.7,0.9-0.9,1.5
	c-0.2,0.6-0.4,1.1-0.5,1.6c-0.1,0.4-0.2,0.8-0.2,1.2c0,0.1,0,0.2,0,0.3c0,0.1,0.1,0.2,0.2,0.3c0.1,0.1,0.2,0.2,0.4,0.2
	c0.2,0.1,0.4,0.1,0.6,0.1c0.1,0,0.2,0,0.4-0.1c0.1-0.1,0.2-0.1,0.3-0.2c0.1-0.1,0.2-0.2,0.3-0.3c0.1-0.1,0.2-0.2,0.3-0.4
	c0.2-0.3,0.4-0.6,0.5-1c0-0.1,0-0.3-0.1-0.5c0-0.2,0-0.5,0-1c0-0.4,0-0.8,0-1.1c0-0.3,0-0.5,0-0.8c0-0.2,0-0.4,0-0.6
	C153.4,81,153.4,81,153.4,81 M158.3,73.9c0-0.5,0.1-0.9,0.1-1.2c0-0.4,0-0.6-0.1-0.8c-0.1-0.1-0.2-0.2-0.3-0.2
	c-0.2,0-0.4,0.1-0.6,0.4c-0.2,0.3-0.3,0.6-0.4,1.1c-0.1,0.4-0.2,0.9-0.4,1.4c-0.1,0.5-0.2,1-0.3,1.5c-0.1,0.5-0.1,0.9-0.1,1.4
	c0,0.4-0.1,0.7-0.1,0.9c0,0.3-0.1,0.7-0.1,1c0,0.3,0,0.6,0,0.9c0,0.3,0,0.5,0,0.7v0.5v0.1c0.4-0.9,0.7-1.8,1.1-2.8
	c0.1-0.4,0.3-0.8,0.4-1.2c0.1-0.4,0.3-0.8,0.4-1.3c0.1-0.4,0.2-0.8,0.3-1.2C158.2,74.6,158.2,74.2,158.3,73.9"/>
<path fill="#FFFFFF" d="M165.3,81.2c0.2,0.4,0.4,0.8,0.5,1.3c0.1,0.4,0.2,1,0.2,1.5c0,0.4,0,0.8-0.1,1.2c-0.1,0.4-0.2,0.8-0.4,1.2
	c-0.2,0.4-0.4,0.8-0.6,1.1c-0.2,0.3-0.5,0.6-0.8,0.9c-0.3,0.3-0.7,0.4-1,0.6c-0.4,0.1-0.8,0.2-1.2,0.2c-0.6,0-1.1-0.1-1.6-0.4
	c-0.4-0.3-0.8-0.6-1.1-1c-0.3-0.4-0.5-0.9-0.6-1.5c-0.1-0.5-0.2-1.1-0.2-1.6c0-0.9,0.1-1.7,0.3-2.4c0.2-0.7,0.6-1.2,1-1.7
	c0.4-0.5,1-0.9,1.6-1.2c0.6-0.3,1.3-0.4,2.1-0.4c0.7,0,1.3,0.1,1.9,0.3c0.6,0.2,1.1,0.5,1.6,0.8c0.5,0.3,1,0.8,1.4,1.3
	c0.4,0.5,0.8,1,1.2,1.5l-0.2,1.5c-0.2-0.2-0.4-0.5-0.8-0.8c-0.3-0.3-0.7-0.6-1-1c-0.4-0.4-0.7-0.7-1.1-0.9c-0.3-0.2-0.6-0.5-0.9-0.6
	L165.3,81.2z M162.1,87.3c0.2,0,0.5-0.1,0.7-0.4c0.2-0.2,0.4-0.5,0.6-0.9c0.2-0.4,0.3-0.8,0.4-1.3s0.2-1,0.2-1.4
	c0-0.3,0-0.6-0.1-0.9c0-0.3-0.1-0.5-0.2-0.7c-0.1-0.2-0.2-0.4-0.4-0.5c-0.2-0.1-0.3-0.2-0.6-0.2c-0.3,0-0.6,0.1-0.8,0.4
	c-0.3,0.2-0.5,0.6-0.7,0.9c-0.2,0.4-0.3,0.8-0.5,1.3c-0.1,0.5-0.2,1-0.2,1.5c0,0.3,0,0.6,0.1,0.8c0.1,0.3,0.1,0.5,0.3,0.7
	c0.1,0.2,0.3,0.3,0.5,0.5C161.6,87.2,161.8,87.3,162.1,87.3"/>
<path fill="#FFFFFF" d="M166.8,87.1c0-0.5,0-1,0.1-1.6c0.1-0.6,0.1-1.3,0.2-2c0.1-0.7,0.2-1.4,0.3-1.9c0.1-0.6,0.2-1.1,0.3-1.5
	c0.1-0.3,0.2-0.6,0.4-0.8c0.2-0.2,0.5-0.3,0.9-0.3s0.6,0.1,0.8,0.3c0.1,0.2,0.2,0.5,0.2,0.9c0,0.1,0,0.2,0,0.4c0,0.2,0,0.4-0.1,0.6
	c0,0.2-0.1,0.4-0.1,0.7c0,0.2-0.1,0.5-0.1,0.8c0,0.3-0.1,0.5-0.1,0.6c0,0.1,0,0.2,0,0.3h0.2c0-0.1,0.1-0.2,0.2-0.4
	c0.1-0.2,0.2-0.4,0.3-0.7c0.1-0.3,0.2-0.6,0.4-0.8c0.1-0.2,0.3-0.5,0.4-0.7c0.1-0.2,0.2-0.4,0.3-0.6c0.1-0.2,0.2-0.3,0.2-0.4
	c0.2-0.4,0.5-0.6,0.8-0.8c0.3-0.1,0.6-0.2,0.9-0.2c0.3,0,0.6,0.1,0.8,0.4c0.2,0.3,0.3,0.7,0.3,1.2c0,0.1,0,0.2,0,0.4
	c0,0.2-0.1,0.4-0.1,0.6c0,0.2-0.1,0.6-0.2,1c-0.1,0.4-0.1,0.8-0.2,1.1c0,0.3-0.1,0.6-0.1,0.9c0,0.3,0,0.6,0,0.8
	c0,0.4,0.1,0.8,0.2,1.1c0.1,0.3,0.3,0.4,0.5,0.4c0.1,0,0.2,0,0.4-0.1c0.2-0.1,0.4-0.2,0.4-0.2c0.3-0.2,0.5-0.3,0.5-0.3
	c0,0,0.3-0.1,0.7-0.4c0.6-0.4,1.2-0.8,2-1.3l0,2.3l-0.5,0.4c0,0-0.4,0.2-1,0.5c-0.9,0.5-1.4,0.8-1.7,0.9c-0.5,0.2-0.9,0.4-1,0.4
	c-0.3,0.1-0.7,0.2-1.1,0.2c-0.4,0-0.7-0.3-1-0.8c-0.3-0.6-0.4-1.4-0.4-2.4c0-0.4,0-0.9,0.1-1.3c0.1-0.5,0.1-1,0.2-1.6H172l-2.7,5.4
	c-0.1,0.3-0.3,0.5-0.5,0.6c-0.2,0.1-0.4,0.2-0.6,0.2c-0.3,0-0.5-0.1-0.7-0.2c-0.2-0.1-0.3-0.3-0.4-0.5c-0.1-0.2-0.2-0.4-0.2-0.7
	C166.9,87.6,166.8,87.4,166.8,87.1"/>
<path fill="#FFFFFF" d="M177.3,75.9c0-0.1,0-0.3,0-0.5c0-0.2,0-0.4,0-0.7c0-0.2,0-0.5,0.1-0.8c0-0.3,0-0.5,0.1-0.8
	c0-0.6,0.1-1.3,0.2-1.9c0-0.2,0.1-0.4,0.2-0.6c0.1-0.2,0.2-0.3,0.4-0.4c0.2-0.1,0.4-0.2,0.6-0.3c0.2-0.1,0.4-0.1,0.6-0.1
	c0.2,0,0.4,0,0.5,0.1c0.2,0,0.3,0.1,0.4,0.2c0.1,0.1,0.2,0.2,0.3,0.4c0.1,0.1,0.1,0.3,0.1,0.5c0,0.1,0,0.2,0,0.3
	c0,0.1,0,0.2-0.1,0.3c-0.1,0.3-0.2,0.7-0.3,1.1c-0.1,0.4-0.2,0.8-0.4,1.2c-0.1,0.4-0.3,0.8-0.4,1.1c-0.1,0.4-0.2,0.7-0.3,0.9
	c-0.1,0.3-0.3,0.6-0.5,0.7c-0.2,0.2-0.4,0.2-0.7,0.2c-0.2,0-0.4-0.1-0.6-0.3C177.4,76.5,177.3,76.3,177.3,75.9"/>
<path fill="#FFFFFF" d="M192.3,86.9c-0.7,0.4-1.3,0.7-1.8,1c-0.5,0.3-1,0.5-1.4,0.7c-0.4,0.2-0.8,0.3-1.1,0.4
	c-0.3,0.1-0.6,0.1-0.9,0.1c-0.5,0-1-0.2-1.4-0.5c-0.4-0.3-0.7-0.8-1-1.4c-0.3-0.6-0.5-1.3-0.6-2.2c-0.1-0.9-0.2-1.8-0.2-2.9
	c0-0.4,0-0.9,0.1-1.3c0-0.5,0.1-0.9,0.1-1.4c-0.2,0-0.4-0.1-0.5-0.1c-0.1,0-0.2-0.1-0.4-0.1c-0.1,0-0.3-0.1-0.5-0.1
	c-0.2,0-0.5-0.1-0.9-0.1c-0.2,0-0.3-0.1-0.4-0.1c-0.1-0.1-0.2-0.1-0.2-0.2c0-0.1-0.1-0.2-0.1-0.3c0-0.1,0-0.2,0-0.2
	c0-0.1,0.1-0.2,0.2-0.3c0.1-0.1,0.3-0.1,0.5-0.1c0.2,0,0.4,0,0.7,0c0.3,0,0.5,0,0.7,0c0.2,0,0.4,0,0.6,0c0.2,0,0.3,0,0.4,0
	c0.2-0.9,0.4-1.8,0.7-2.7c0.3-0.9,0.6-1.7,1-2.3c0.4-0.7,0.7-1.2,1.2-1.6c0.4-0.4,0.9-0.6,1.3-0.6c0.3,0,0.6,0.1,0.8,0.2
	c0.2,0.2,0.5,0.4,0.6,0.7c0.2,0.3,0.3,0.6,0.4,1c0.1,0.4,0.1,0.8,0.1,1.2c0,0.3,0,0.7-0.1,1.1c-0.1,0.4-0.2,0.7-0.4,1.1
	c-0.2,0.4-0.4,0.8-0.6,1.2c-0.2,0.4-0.5,0.8-0.7,1.2c0.1,0,0.2,0,0.3,0c0.1,0,0.3,0,0.5,0c0.2,0,0.4,0,0.6,0c0.2,0,0.4,0,0.6,0
	c0.2,0,0.4,0,0.6,0c0.2,0,0.3,0,0.4,0c0.1,0,0.2,0.1,0.3,0.2c0.1,0.1,0.1,0.3,0.1,0.6c0,0.3-0.1,0.5-0.2,0.6
	c-0.1,0.2-0.3,0.2-0.5,0.2h-4c-0.2,0.3-0.4,0.6-0.6,0.8c-0.2,0.3-0.4,0.5-0.6,0.7c0,0.4-0.1,0.9-0.1,1.3c0,0.2,0,0.4,0,0.6
	c0,0.2,0,0.4,0,0.6s0,0.4,0,0.5c0,0.2,0,0.3,0,0.5c0,0.4,0,0.7,0.1,0.9c0.1,0.3,0.2,0.5,0.3,0.6c0.1,0.2,0.3,0.3,0.5,0.4
	c0.2,0.1,0.4,0.1,0.6,0.1c0.1,0,0.3,0,0.5-0.1c0.2-0.1,0.5-0.2,0.7-0.3c0.3-0.1,0.5-0.3,0.8-0.4c0.3-0.2,0.6-0.3,0.9-0.5
	c0.3-0.2,0.6-0.4,0.8-0.6c0.3-0.2,0.5-0.4,0.7-0.7V86.9z M188.9,73.8c0-0.1,0-0.2,0-0.3c0-0.1,0-0.2-0.1-0.3c0-0.1-0.1-0.2-0.2-0.2
	c-0.1-0.1-0.2-0.1-0.3-0.1c-0.2,0-0.4,0.2-0.5,0.5c-0.2,0.3-0.4,0.7-0.5,1.2c-0.2,0.5-0.3,1-0.5,1.6c-0.2,0.6-0.3,1.2-0.4,1.7
	c0.1,0,0.2,0,0.3,0c0.1,0,0.2,0,0.3,0c0.2-0.4,0.4-0.7,0.7-1.1c0.2-0.4,0.4-0.8,0.6-1.2c0.2-0.4,0.3-0.8,0.4-1.1
	C188.9,74.3,188.9,74,188.9,73.8"/>
<path fill="#FFFFFF" d="M200.9,80.9c0.4-0.5,0.7-0.9,1.1-1.2c0.3-0.3,0.6-0.4,1-0.4c0.4,0,0.8,0.1,1.1,0.3c0.3,0.2,0.6,0.4,0.8,0.7
	c0.2,0.3,0.4,0.6,0.5,1c0.1,0.4,0.2,0.8,0.2,1.2c0,0.4,0,0.7,0,1c0,0.3-0.1,0.6-0.2,0.9c-0.1,0.3-0.2,0.6-0.3,0.9
	c-0.1,0.3-0.3,0.6-0.5,0.9c0.2-0.1,0.5-0.3,0.8-0.4c0.3-0.1,0.5-0.3,0.8-0.5c0.3-0.2,0.5-0.4,0.8-0.6c0.3-0.2,0.5-0.5,0.8-0.7
	l0.8,1.7c-0.4,0.3-0.8,0.7-1.1,0.9c-0.4,0.3-0.8,0.5-1.2,0.7c-0.4,0.2-0.8,0.4-1.2,0.5c-0.4,0.1-0.9,0.3-1.4,0.4
	c-0.1,0.1-0.3,0.2-0.5,0.4c-0.2,0.1-0.4,0.2-0.6,0.3c-0.2,0.1-1,0.3-1,0.3c-1.1,0-1.7,0-1.8,0c-0.8-0.2-1.4-0.4-1.6-0.5
	c-0.4-0.3-0.8-0.5-1.1-0.8c0-0.6,0.1-1.2,0.1-1.9c0-0.6,0.1-1.4,0.2-2.3c0.1-1.3,0.3-2.3,0.4-2.9c0.1-0.7,0.1-1.4,0.3-2.3
	c0.1-0.6,0.3-1.4,0.4-2.4c0.2-1,0.4-1.8,0.7-2.6c0.3-0.8,0.6-1.5,0.9-2.2c0.3-0.6,0.7-1.1,1.1-1.5c0.4-0.4,0.8-0.6,1.3-0.6
	c0.5,0,1,0.1,1.3,0.3c0.3,0.2,0.6,0.4,0.7,0.7c0.2,0.3,0.3,0.7,0.3,1.1c0.1,0.4,0.1,0.9,0.1,1.3c0,0.7-0.1,1.3-0.4,2
	c-0.2,0.7-0.6,1.4-1,2.1c-0.4,0.7-0.8,1.4-1.3,2c-0.5,0.7-1,1.3-1.5,1.9L200.9,80.9z M201.8,81.6c-0.2,0-0.5,0.1-0.7,0.2
	c-0.2,0.1-0.5,0.3-0.7,0.5c-0.2,0.2-0.4,0.5-0.6,0.8c-0.3,0.7-0.4,1.1-0.4,1.2c0,0,0,0.4-0.1,1.2c0,0.3-0.1,0.6-0.1,0.8
	c0,0.3-0.1,0.5-0.1,0.8c0.2,0.1,0.5,0.1,0.7,0.2c0.2,0,0.4,0,0.6,0c0.2,0,0.4-0.1,0.6-0.1c0.2,0,0.5-0.1,0.6-0.2
	c0.2-0.1,0.4-0.3,0.5-0.6c0.2-0.2,0.3-0.5,0.4-0.8c0.1-0.3,0.2-0.6,0.3-0.9c0.1-0.3,0.1-0.6,0.2-1c0-0.3,0.1-0.6,0.1-0.9
	c0-0.2,0-0.3-0.1-0.5c0-0.2-0.1-0.3-0.2-0.4c-0.1-0.1-0.2-0.2-0.4-0.3C202.3,81.7,202.1,81.6,201.8,81.6 M202.9,72.1
	c0,0,0-0.1,0-0.2c0-0.1,0-0.2-0.1-0.3c0-0.1-0.1-0.2-0.2-0.3c-0.1-0.1-0.2-0.1-0.3-0.1c-0.1,0-0.3,0.1-0.4,0.3
	c-0.1,0.2-0.3,0.5-0.4,0.8c-0.1,0.3-0.3,0.7-0.4,1.2c-0.1,0.4-0.3,0.9-0.4,1.4c-0.1,0.5-0.2,1-0.4,1.5c-0.1,0.5-0.2,1-0.3,1.4
	c-0.1,0.4-0.2,0.9-0.3,1.2c-0.1,0.4-0.1,0.7-0.2,0.9c0.2-0.4,0.4-0.7,0.6-1.1c0.2-0.4,0.5-0.8,0.7-1.2c0.2-0.4,0.5-0.8,0.7-1.3
	c0.2-0.4,0.4-0.9,0.6-1.4c0.2-0.5,0.3-0.9,0.5-1.4C202.7,73.1,202.8,72.6,202.9,72.1"/>
<path fill="#FFFFFF" d="M210.9,89.3c-0.6,0-1.2-0.1-1.7-0.4c-0.5-0.2-0.9-0.6-1.2-1c-0.3-0.4-0.6-0.9-0.7-1.4
	c-0.2-0.5-0.2-1.1-0.2-1.7c0-0.4,0.1-0.8,0.2-1.4c0.1-0.5,0.3-1,0.5-1.4c0.2-0.4,0.4-0.8,0.6-1.2c0.2-0.4,0.5-0.7,0.8-1
	c0.3-0.3,0.7-0.5,1.1-0.7c0.4-0.2,0.8-0.3,1.3-0.3c0.4,0,0.8,0.1,1.1,0.2c0.3,0.1,0.6,0.3,0.9,0.5c0.2,0.2,0.4,0.5,0.6,0.8
	c0.1,0.3,0.2,0.7,0.2,1.1c0,0.4-0.1,0.9-0.4,1.4c-0.3,0.5-0.6,1-1,1.3c-0.4,0.4-0.8,0.7-1.3,1c-0.5,0.3-1.1,0.5-1.7,0.7
	c0.1,0.2,0.2,0.3,0.3,0.5c0.1,0.1,0.2,0.2,0.3,0.3c0.1,0.1,0.2,0.1,0.3,0.1c0.1,0,0.2,0,0.4,0c0.4,0,0.9-0.1,1.3-0.2
	c0.5-0.2,0.9-0.4,1.3-0.6c0.4-0.2,0.8-0.5,1.2-0.8c0.4-0.3,0.7-0.6,1-0.8l1.3,1.4c-0.6,0.7-1.3,1.2-1.9,1.7c-0.3,0.2-0.6,0.4-1,0.6
	c-0.3,0.2-0.7,0.4-1.1,0.6c-0.4,0.2-0.8,0.3-1.2,0.4C211.7,89.2,211.3,89.3,210.9,89.3 M209.5,84.3c0.3,0,0.5-0.1,0.8-0.2
	s0.6-0.3,0.8-0.5c0.3-0.2,0.5-0.5,0.7-0.8c0.2-0.3,0.4-0.6,0.4-0.8c0-0.3-0.1-0.6-0.2-0.8c-0.1-0.2-0.3-0.3-0.4-0.3
	c-0.3,0-0.6,0.1-0.8,0.2c-0.2,0.1-0.4,0.2-0.5,0.4c-0.1,0.2-0.3,0.4-0.3,0.6c-0.1,0.2-0.2,0.5-0.3,0.8c-0.1,0.3-0.2,0.6-0.2,0.8
	C209.5,84,209.5,84.2,209.5,84.3"/>
<path fill="#FFFFFF" d="M220.2,85.3c0.4-0.3,0.7-0.6,0.9-0.8c0.2-0.2,0.5-0.5,0.7-0.8c0.2-0.3,0.4-0.5,0.6-0.7
	c0.1-0.2,0.3-0.4,0.5-0.7c0.2-0.3,0.4-0.6,0.7-1c0.3-0.4,0.6-0.8,1.1-1.4c0.1-0.1,0.2-0.2,0.3-0.4c0.1-0.1,0.2-0.2,0.4-0.3
	c0.1-0.1,0.3-0.2,0.4-0.2c0.2-0.1,0.3-0.1,0.5-0.1c0.3,0,0.6,0,0.8,0.1c0.2,0.1,0.3,0.2,0.4,0.3c0.1,0.1,0.1,0.2,0.1,0.3
	c0,0.1,0,0.2,0,0.3c0,0.2-0.1,0.4-0.2,0.6c-0.1,0.2-0.3,0.4-0.4,0.6c-0.2,0.2-0.3,0.4-0.5,0.5c-0.1,0.2-0.2,0.3-0.2,0.4
	c0,0.2,0,0.4,0,0.6c0,0.2,0.1,0.4,0.1,0.5c0.1,0.2,0.1,0.4,0.2,0.5c0.1,0.2,0.1,0.4,0.2,0.7c0.1,0.3,0.1,0.6,0,1
	c0,0.4-0.1,0.9-0.1,1.3c0.3-0.2,0.5-0.3,0.8-0.5c0.3-0.1,0.6-0.3,0.9-0.4c0.3-0.1,0.6-0.3,1-0.5c0.3-0.2,0.7-0.4,1-0.6l0,2.4
	c-0.4,0.3-0.9,0.6-1.5,0.9c-0.6,0.3-1.2,0.5-1.8,0.7c-0.6,0.2-1.3,0.4-1.9,0.5c-0.6,0.1-1.2,0.2-1.8,0.2c-0.4,0-0.8,0-1.1-0.1
	c-0.4-0.1-0.7-0.2-0.9-0.3c-0.3-0.2-0.5-0.4-0.7-0.6c-0.2-0.3-0.3-0.6-0.3-0.9c-0.1,0-0.2,0-0.3,0c-0.1,0-0.2,0-0.3,0
	c-0.1,0-0.2,0-0.3,0c-0.1,0-0.2,0-0.2-0.1c-0.1,0-0.1-0.1-0.2-0.2c0-0.1-0.1-0.2-0.1-0.4c0-0.2,0-0.3,0.1-0.5
	c0.1-0.1,0.2-0.3,0.3-0.4c0.1-0.1,0.2-0.2,0.3-0.3C220.1,85.5,220.2,85.4,220.2,85.3 M221.5,86.7c0.1,0,0.2,0.1,0.3,0.2
	c0.1,0.1,0.2,0.2,0.3,0.3c0.1,0.1,0.3,0.2,0.5,0.3c0.2,0.1,0.4,0.2,0.6,0.2c0.3,0,0.5,0,0.7-0.1c0.2-0.1,0.3-0.2,0.4-0.4
	c0.1-0.2,0.2-0.3,0.2-0.5c0-0.2,0.1-0.4,0.1-0.6c0-0.2,0-0.4,0-0.6c0-0.2,0-0.4,0-0.7c0-0.3,0-0.5,0-0.7c0-0.2-0.1-0.3-0.1-0.4
	L221.5,86.7z"/>
<path fill="#FFFFFF" d="M232.9,82.9c0.3-0.4,0.6-0.8,1-1.2c0.4-0.4,0.8-1,1.4-1.5c0.6-0.6,1.1-1,1.5-1.2c0.4-0.3,0.7-0.4,1.1-0.4
	c0.1,0,0.2,0,0.3,0c0.1,0,0.2,0.1,0.3,0.2c0.1,0.1,0.2,0.2,0.2,0.4c0.1,0.2,0.1,0.3,0.1,0.6c0,0.5-0.1,0.9-0.2,1.4
	c-0.1,0.5-0.4,1-0.7,1.7c-0.4,0.7-0.6,1.2-0.7,1.7c-0.1,0.5-0.2,1-0.2,1.5c0,0.3,0,0.5,0.1,0.7c0.1,0.2,0.2,0.3,0.3,0.3
	c0.2,0,0.3,0,0.5-0.1c0.2-0.1,0.4-0.2,0.6-0.3c0.2-0.1,0.4-0.2,0.6-0.4c0.2-0.1,0.3-0.3,0.5-0.4c0.4-0.4,0.8-0.8,1.1-1.2l0.2,2.8
	c-0.1,0.1-0.3,0.2-0.5,0.3c-0.2,0.1-0.4,0.3-0.6,0.4c-0.2,0.2-0.5,0.3-0.8,0.5c-0.3,0.2-0.5,0.3-0.8,0.4c-0.3,0.1-0.5,0.2-0.8,0.3
	c-0.3,0.1-0.5,0.1-0.8,0.1c-0.4,0-0.7-0.1-1-0.3c-0.3-0.2-0.5-0.4-0.7-0.7c-0.2-0.3-0.3-0.6-0.4-1c-0.1-0.4-0.1-0.7-0.1-1
	c0-0.2,0-0.5,0.1-0.8c0.1-0.3,0.1-0.6,0.2-0.8c0.1-0.3,0.2-0.6,0.3-0.8c0.1-0.3,0.2-0.5,0.3-0.7c0.1-0.2,0.2-0.4,0.3-0.5
	c0.1-0.1,0.1-0.2,0.1-0.2l-0.2,0c-0.1,0.1-0.3,0.3-0.6,0.6c-0.3,0.3-0.6,0.7-1,1.2c-0.4,0.5-0.7,1-1.1,1.6c-0.4,0.6-0.7,1.2-1,1.8
	c-0.2,0.3-0.3,0.6-0.4,0.8c-0.1,0.2-0.2,0.4-0.3,0.6c-0.1,0.1-0.2,0.2-0.3,0.3c-0.1,0.1-0.3,0.1-0.4,0.1c-0.2,0-0.4-0.1-0.5-0.2
	c-0.1-0.1-0.2-0.3-0.3-0.5c-0.1-0.2-0.1-0.4-0.1-0.7c0-0.3,0-0.5,0-0.8c0-0.5,0-1.1,0-1.9c0-0.8,0-1.6,0.1-2.6
	c0.1-0.9,0.2-1.9,0.3-2.9c0.1-1,0.3-2,0.4-3c0.1-1,0.4-1.9,0.7-2.8c0.3-0.9,0.6-1.7,1.1-2.4c0.4-0.7,0.9-1.2,1.5-1.6
	c0.6-0.4,1.2-0.6,1.9-0.6c0.4,0,0.7,0.1,0.9,0.2c0.2,0.1,0.4,0.3,0.6,0.5c0.1,0.2,0.2,0.4,0.3,0.7c0.1,0.3,0.1,0.6,0.1,0.9
	c0,0.5-0.1,1.1-0.2,1.7c-0.1,0.6-0.3,1.3-0.6,2c-0.2,0.7-0.5,1.4-0.8,2.1c-0.3,0.7-0.6,1.4-0.9,2c-0.3,0.7-0.6,1.3-0.9,1.9
	c-0.3,0.6-0.6,1.1-0.8,1.5L232.9,82.9z M233.8,76.4c0.4-1.1,0.7-2,0.9-2.7c0.2-0.7,0.3-1.3,0.3-1.6c0-0.5-0.1-0.8-0.2-0.8
	c-0.2,0-0.4,0.3-0.8,0.9c-0.4,0.6-0.8,1.4-1.2,2.6c-0.1,0.4-0.2,0.8-0.3,1.2c-0.1,0.4-0.2,0.8-0.2,1.2c-0.1,0.4-0.1,0.8-0.2,1.2
	c-0.1,0.4-0.1,0.8-0.2,1.1c-0.2,0.8-0.3,1.6-0.3,2.4c0.2-0.4,0.4-0.9,0.6-1.4c0.2-0.5,0.4-1,0.7-1.5c0.2-0.5,0.4-1,0.6-1.4
	C233.5,77.1,233.7,76.7,233.8,76.4"/>
<path fill="#FFFFFF" d="M244.3,89.5l0.2-1.3c-0.4,0.3-0.8,0.6-1.2,0.8c-0.4,0.2-0.8,0.3-1.2,0.3c-0.3,0-0.7-0.1-1-0.2
	c-0.3-0.1-0.6-0.3-0.8-0.6c-0.2-0.3-0.4-0.6-0.6-0.9c-0.1-0.4-0.2-0.8-0.2-1.2c0-0.6,0-1.2,0.1-1.7c0.1-0.5,0.2-1.1,0.3-1.9
	c0.1-0.7,0.3-1.3,0.4-1.7c0.2-0.4,0.4-0.9,0.6-1.3c0.2-0.3,0.4-0.5,0.7-0.7c0.3-0.2,0.6-0.2,0.9-0.2c0.2,0,0.5,0.1,0.6,0.2
	c0.2,0.1,0.3,0.3,0.3,0.6c0,0.1,0,0.2,0,0.3c0,0.1,0,0.2-0.1,0.3c-0.1,0.3-0.2,0.7-0.3,1.1c-0.1,0.4-0.2,1-0.3,1.8
	c-0.1,0.7-0.3,1.3-0.3,1.7c-0.1,0.4-0.1,0.8-0.1,1.1c0,0.2,0,0.3,0,0.5c0,0.2,0.1,0.3,0.1,0.4c0.1,0.1,0.1,0.2,0.2,0.3
	c0.1,0.1,0.2,0.1,0.4,0.1c0.3,0,0.5-0.1,0.7-0.3c0.2-0.2,0.4-0.5,0.5-0.8c0.2-0.3,0.3-0.6,0.4-1c0.1-0.3,0.2-0.6,0.2-0.8l0.8-3.9
	c0-0.2,0.1-0.4,0.3-0.6c0.1-0.2,0.3-0.3,0.5-0.5c0.2-0.1,0.4-0.2,0.6-0.3c0.2-0.1,0.4-0.1,0.6-0.1c0.2,0,0.4,0,0.5,0.1
	c0.1,0.1,0.2,0.2,0.2,0.4c0,0.1,0,0.1,0,0.2c0,0.2-0.1,0.4-0.1,0.7c-0.1,0.3-0.1,0.7-0.2,1.1c-0.1,0.4-0.2,1-0.3,1.7
	c-0.1,0.7-0.2,1.3-0.3,1.7c-0.2,1-0.4,2.1-0.5,3.3c0.2-0.1,0.4-0.3,0.7-0.4c0.2-0.2,0.5-0.4,0.8-0.7c0.3-0.3,0.6-0.7,1-1.1
	c0.4-0.4,0.8-1,1.2-1.6l0.5,2.3c-0.1,0.2-0.3,0.4-0.5,0.7c-0.2,0.2-0.4,0.5-0.7,0.7c-0.3,0.3-0.6,0.5-0.7,0.6c0,0-0.3,0.2-0.8,0.6
	c-0.1,0.1-0.6,0.4-1.4,1c-0.2,0.1-0.3,0.4-0.4,0.7c-0.1,0.3-0.2,0.9-0.2,1.8c0,0.3-0.1,0.5-0.1,0.6c0,0.3-0.1,0.6-0.1,0.9
	c0,0.3-0.1,0.6-0.2,1c-0.1,0.4-0.2,0.7-0.3,1.1c-0.1,0.3-0.3,0.6-0.5,1c-0.2,0.3-0.5,0.6-0.7,0.8c-0.3,0.2-0.6,0.4-0.9,0.5
	c-0.4,0.1-0.8,0.2-1.2,0.2c-0.4,0-0.7,0-1-0.1c-0.3-0.1-0.6-0.2-0.8-0.4c-0.2-0.2-0.5-0.4-0.6-0.7c-0.2-0.3-0.3-0.6-0.3-1
	c-0.1-0.7,0.1-1.5,0.6-2.3c0.3-0.5,0.4-0.8,0.5-1c0.1-0.2,0.3-0.4,0.5-0.8c0.2-0.3,0.5-0.6,0.7-0.9c0.5-0.5,0.9-1,1.2-1.3
	C243.5,90.2,243.9,89.8,244.3,89.5 M244.4,92c-0.5,0.3-1,0.9-1.4,1.7c-0.5,0.8-0.8,1.5-1.1,2.3c-0.2,0.7-0.1,1,0.3,1
	c0.2,0,0.3,0,0.4-0.1c0.1,0,0.3-0.1,0.4-0.2c0.1-0.1,0.2-0.2,0.3-0.4c0.1-0.1,0.2-0.3,0.3-0.5c0.1-0.2,0.2-0.5,0.2-0.7
	c0.1-0.2,0.2-0.5,0.3-0.9c0.1-0.2,0.1-0.4,0.1-0.7c0-0.2,0.1-0.5,0.1-0.9C244.3,92.3,244.4,92.1,244.4,92"/>
<path fill="#FFFFFF" d="M255.8,87.5c0,0,0,0.1,0,0.2c0,0.1,0,0.2-0.1,0.4c0,0.1-0.1,0.3-0.2,0.4c-0.1,0.1-0.2,0.3-0.3,0.4
	c-0.1,0.1-0.3,0.2-0.6,0.3c-0.2,0.1-0.5,0.1-0.8,0.1c-0.3,0-0.5,0-0.7-0.1c-0.2-0.1-0.4-0.2-0.5-0.3c-0.1-0.1-0.3-0.3-0.3-0.5
	c-0.1-0.2-0.1-0.4-0.1-0.7c0-0.2,0-0.5,0.1-0.7c0.1-0.2,0.2-0.4,0.3-0.6c0.2-0.2,0.3-0.3,0.6-0.4c0.2-0.1,0.5-0.2,0.9-0.2
	c0.6,0,1,0.1,1.3,0.4C255.7,86.6,255.8,87,255.8,87.5"/>
<path fill="#FFFFFF" d="M276.2,87.1c-0.5,0.4-1,0.8-1.5,1.1c-0.2,0.1-0.4,0.3-0.6,0.4c-0.2,0.1-0.4,0.2-0.7,0.3
	c-0.2,0.1-0.4,0.2-0.6,0.2c-0.2,0.1-0.4,0.1-0.6,0.1c-0.1,0-0.2,0-0.4-0.1c-0.2,0-0.4-0.1-0.6-0.3c-0.2-0.1-0.5-0.3-0.7-0.6
	c-0.2-0.3-0.4-0.6-0.6-1c-0.3,0.3-0.5,0.5-0.8,0.8c-0.3,0.2-0.6,0.4-0.9,0.6c-0.3,0.2-0.6,0.3-0.9,0.4c-0.3,0.1-0.6,0.2-1,0.2
	c-0.5,0-0.8-0.1-1.2-0.3c-0.3-0.2-0.6-0.4-0.8-0.7c-0.2-0.3-0.4-0.7-0.5-1.1c-0.1-0.4-0.2-0.8-0.2-1.2c0-0.5,0.1-0.9,0.2-1.4
	c0.1-0.5,0.3-0.9,0.5-1.3c0.2-0.4,0.5-0.9,0.7-1.4c0.3-0.5,0.6-0.9,1.1-1.3c0.4-0.4,0.9-0.7,1.4-0.9c0.5-0.2,1-0.3,1.5-0.4
	c0-0.9,0.1-1.7,0.3-2.4c0.2-0.7,0.4-1.4,0.6-2.2c0.2-0.8,0.5-1.5,0.8-2.2c0.3-0.7,0.7-1.2,1-1.7c0.4-0.5,0.8-0.9,1.2-1.1
	c0.4-0.3,0.9-0.4,1.3-0.4c0.3,0,0.6,0.1,0.8,0.3c0.2,0.2,0.4,0.4,0.6,0.7c0.1,0.3,0.2,0.6,0.3,1c0.1,0.4,0.1,0.8,0.1,1.2
	c0,0.2,0,0.5,0,0.8c0,1-0.2,1.9-0.5,2.8c-0.3,0.9-0.6,1.7-0.9,2.5c-0.3,0.8-0.6,1.7-1,2.5c-0.6,1.3-1,2.1-1.2,2.6
	c0,0.1-0.1,0.2-0.1,0.4c0,0.1-0.1,0.3-0.1,0.5c0,0.2-0.1,0.3-0.1,0.5c0,0.2,0,0.3,0,0.5c0,0.2,0,0.4,0,0.6c0,0.2,0.1,0.3,0.1,0.5
	c0.1,0.1,0.1,0.3,0.2,0.3c0.1,0.1,0.2,0.1,0.3,0.1c0.1,0,0.3,0,0.4-0.1c0.2-0.1,0.3-0.1,0.5-0.2c0.2-0.1,0.3-0.2,0.5-0.3
	c0.2-0.1,0.3-0.2,0.5-0.4c0.4-0.3,0.8-0.6,1.2-1L276.2,87.1z M269,81c-0.5,0.2-0.9,0.5-1.2,0.9c-0.4,0.4-0.7,0.9-0.9,1.5
	c-0.2,0.6-0.4,1.1-0.5,1.6c-0.1,0.4-0.2,0.8-0.2,1.2c0,0.1,0,0.2,0,0.3c0,0.1,0.1,0.2,0.2,0.3c0.1,0.1,0.2,0.2,0.4,0.2
	c0.2,0.1,0.4,0.1,0.6,0.1c0.1,0,0.2,0,0.4-0.1c0.1-0.1,0.2-0.1,0.4-0.2c0.1-0.1,0.2-0.2,0.3-0.3c0.1-0.1,0.2-0.2,0.3-0.4
	c0.2-0.3,0.4-0.6,0.5-1c0-0.1,0-0.3-0.1-0.5c0-0.2,0-0.5,0-1c0-0.4,0-0.8,0-1.1c0-0.3,0-0.5,0-0.8c0-0.2,0-0.4,0-0.6
	C269,81,269,81,269,81 M273.9,73.9c0-0.5,0.1-0.9,0.1-1.2c0-0.4,0-0.6-0.1-0.8c-0.1-0.1-0.2-0.2-0.3-0.2c-0.2,0-0.4,0.1-0.6,0.4
	c-0.2,0.3-0.3,0.6-0.4,1.1c-0.1,0.4-0.2,0.9-0.4,1.4c-0.1,0.5-0.2,1-0.3,1.5c-0.1,0.5-0.1,0.9-0.1,1.4c0,0.4-0.1,0.7-0.1,0.9
	c0,0.3-0.1,0.7-0.1,1c0,0.3,0,0.6,0,0.9c0,0.3,0,0.5,0,0.7v0.5v0.1c0.4-0.9,0.7-1.8,1.1-2.8c0.1-0.4,0.3-0.8,0.4-1.2
	c0.1-0.4,0.3-0.8,0.4-1.3c0.1-0.4,0.2-0.8,0.3-1.2C273.8,74.6,273.8,74.2,273.9,73.9"/>
<path fill="#FFFFFF" d="M278.9,89.3c-0.6,0-1.2-0.1-1.7-0.4c-0.5-0.2-0.9-0.6-1.2-1c-0.3-0.4-0.6-0.9-0.7-1.4
	c-0.2-0.5-0.2-1.1-0.2-1.7c0-0.4,0.1-0.8,0.2-1.4c0.1-0.5,0.3-1,0.5-1.4c0.2-0.4,0.4-0.8,0.6-1.2c0.2-0.4,0.5-0.7,0.8-1
	c0.3-0.3,0.7-0.5,1.1-0.7c0.4-0.2,0.8-0.3,1.3-0.3c0.4,0,0.8,0.1,1.1,0.2c0.3,0.1,0.6,0.3,0.9,0.5s0.4,0.5,0.6,0.8
	c0.1,0.3,0.2,0.7,0.2,1.1c0,0.4-0.1,0.9-0.4,1.4c-0.3,0.5-0.6,1-1,1.3c-0.4,0.4-0.8,0.7-1.3,1c-0.5,0.3-1.1,0.5-1.7,0.7
	c0.1,0.2,0.2,0.3,0.3,0.5c0.1,0.1,0.2,0.2,0.3,0.3c0.1,0.1,0.2,0.1,0.3,0.1c0.1,0,0.2,0,0.4,0c0.4,0,0.9-0.1,1.3-0.2
	c0.5-0.2,0.9-0.4,1.3-0.6c0.4-0.2,0.8-0.5,1.2-0.8c0.4-0.3,0.7-0.6,1-0.8l1.3,1.4c-0.6,0.7-1.3,1.2-1.9,1.7c-0.3,0.2-0.6,0.4-1,0.6
	c-0.3,0.2-0.7,0.4-1.1,0.6c-0.4,0.2-0.8,0.3-1.2,0.4C279.7,89.2,279.3,89.3,278.9,89.3 M277.5,84.3c0.3,0,0.5-0.1,0.8-0.2
	s0.6-0.3,0.8-0.5c0.3-0.2,0.5-0.5,0.7-0.8c0.2-0.3,0.4-0.6,0.4-0.8c0-0.3-0.1-0.6-0.2-0.8c-0.1-0.2-0.3-0.3-0.4-0.3
	c-0.3,0-0.6,0.1-0.8,0.2c-0.2,0.1-0.4,0.2-0.5,0.4c-0.1,0.2-0.3,0.4-0.3,0.6c-0.1,0.2-0.2,0.5-0.3,0.8c-0.1,0.3-0.2,0.6-0.2,0.8
	C277.5,84,277.5,84.2,277.5,84.3"/>
<path fill="#FFFFFF" d="M283,85.9c0-0.5,0-1-0.1-1.4c0-0.4,0-0.7-0.1-1c0-0.3,0-0.6,0-0.9c0-0.3,0-0.5,0-0.8c0-0.9,0-1.6,0.1-2
	c0.1-0.4,0.2-0.6,0.5-0.7l1.3-0.2l0.1,0h0.1c0.2,0,0.3,0.1,0.4,0.2c0.1,0.1,0.1,0.3,0.2,0.5l-0.2,6.9l0.1,0l2.8-6.9
	c0-0.1,0.1-0.2,0.1-0.3c0.1-0.1,0.2-0.2,0.3-0.2c0.1-0.1,0.2-0.1,0.4-0.2c0.1,0,0.3-0.1,0.4-0.1c0.4,0,0.7,0.1,1,0.2
	c0.2,0.2,0.4,0.4,0.4,0.6c0,0.2,0,0.4-0.1,0.6c-0.1,0.2-0.1,0.4-0.2,0.6c-0.2,0.4-0.3,0.6-0.3,0.7c-0.3,0.8-0.5,1.2-0.5,1.3
	c0,0.1-0.1,0.3-0.1,0.4c0,0.1-0.1,0.3-0.1,0.4c0,0.1,0,0.3,0,0.5c0,0.2,0,0.3,0.1,0.5c0,0.2,0.1,0.3,0.2,0.4
	c0.1,0.1,0.2,0.2,0.4,0.3c0.2,0.1,0.4,0.1,0.7,0.1c0.2,0,0.4-0.1,0.7-0.2c0.3-0.1,0.5-0.2,0.8-0.4c0.3-0.2,0.6-0.3,0.9-0.5v2.4
	c-0.5,0.3-0.9,0.5-1.4,0.7c-0.5,0.2-1,0.3-1.4,0.3c-0.4,0-0.7-0.1-1-0.2c-0.3-0.1-0.5-0.3-0.8-0.5c-0.2-0.2-0.4-0.4-0.5-0.7
	c-0.1-0.2-0.2-0.5-0.2-0.8c-0.2,0.4-0.4,0.8-0.7,1.3c-0.3,0.4-0.5,0.8-0.8,1.2c-0.3,0.4-0.5,0.6-0.8,0.9c-0.3,0.2-0.5,0.3-0.7,0.3
	c-0.4,0-0.8-0.1-1-0.3c-0.2-0.2-0.4-0.5-0.5-0.8c-0.1-0.3-0.2-0.7-0.2-1c0-0.4-0.1-0.7-0.1-1.1L283,85.9z"/>
<path fill="#FFFFFF" d="M295.3,89.3c-0.6,0-1.2-0.1-1.7-0.4c-0.5-0.2-0.9-0.6-1.2-1c-0.3-0.4-0.6-0.9-0.7-1.4
	c-0.2-0.5-0.2-1.1-0.2-1.7c0-0.4,0.1-0.8,0.2-1.4c0.1-0.5,0.3-1,0.5-1.4c0.2-0.4,0.4-0.8,0.6-1.2c0.2-0.4,0.5-0.7,0.8-1
	c0.3-0.3,0.7-0.5,1.1-0.7c0.4-0.2,0.8-0.3,1.3-0.3c0.4,0,0.8,0.1,1.1,0.2c0.3,0.1,0.6,0.3,0.9,0.5c0.2,0.2,0.4,0.5,0.6,0.8
	c0.1,0.3,0.2,0.7,0.2,1.1c0,0.4-0.1,0.9-0.4,1.4c-0.3,0.5-0.6,1-1,1.3c-0.4,0.4-0.8,0.7-1.3,1c-0.5,0.3-1.1,0.5-1.7,0.7
	c0.1,0.2,0.2,0.3,0.3,0.5c0.1,0.1,0.2,0.2,0.3,0.3c0.1,0.1,0.2,0.1,0.3,0.1c0.1,0,0.2,0,0.4,0c0.4,0,0.9-0.1,1.3-0.2
	c0.5-0.2,0.9-0.4,1.3-0.6c0.4-0.2,0.8-0.5,1.2-0.8c0.4-0.3,0.7-0.6,1-0.8l1.3,1.4c-0.6,0.7-1.3,1.2-1.9,1.7c-0.3,0.2-0.6,0.4-1,0.6
	c-0.3,0.2-0.7,0.4-1.1,0.6c-0.4,0.2-0.8,0.3-1.2,0.4C296.1,89.2,295.7,89.3,295.3,89.3 M293.9,84.3c0.2,0,0.5-0.1,0.8-0.2
	c0.3-0.1,0.6-0.3,0.8-0.5c0.3-0.2,0.5-0.5,0.7-0.8c0.2-0.3,0.4-0.6,0.4-0.8c0-0.3-0.1-0.6-0.2-0.8c-0.1-0.2-0.3-0.3-0.4-0.3
	c-0.3,0-0.6,0.1-0.8,0.2c-0.2,0.1-0.4,0.2-0.5,0.4c-0.1,0.2-0.3,0.4-0.3,0.6c-0.1,0.2-0.2,0.5-0.3,0.8c-0.1,0.3-0.2,0.6-0.2,0.8
	C293.9,84,293.9,84.2,293.9,84.3"/>
<path fill="#FFFFFF" d="M301.7,89.3c-0.4,0-0.7-0.2-1-0.5c-0.3-0.3-0.6-0.8-0.8-1.3c-0.2-0.5-0.4-1.2-0.6-1.9
	c-0.1-0.7-0.2-1.5-0.2-2.3c0-0.7,0.1-1.6,0.3-2.7c0.2-1.1,0.3-1.7,0.3-1.7s0.2-0.6,0.5-1.7c0.3-1.1,0.6-2,0.9-2.7
	c0.3-0.7,0.6-1.3,1-1.9c0.4-0.6,0.7-1.1,1.1-1.6c0.4-0.4,0.8-0.8,1.2-1c0.4-0.3,0.9-0.4,1.3-0.4c0.3,0,0.6,0.1,0.8,0.2
	c0.2,0.1,0.4,0.3,0.5,0.5c0.1,0.2,0.2,0.4,0.3,0.7c0,0.3,0.1,0.5,0.1,0.8c0,0.7-0.1,1.3-0.2,2c-0.2,0.7-0.4,1.4-0.6,2.1
	c-0.3,0.7-0.6,1.4-0.9,2.1c-0.3,0.7-0.7,1.4-1.1,2.1c-0.4,0.7-0.8,1.4-1.1,2c-0.4,0.7-0.7,1.3-1,1.9c0,0.1-0.1,0.2-0.1,0.3
	c0,0.1-0.1,0.2-0.1,0.4c0,0.1-0.1,0.3-0.1,0.4c0,0.1-0.1,0.3-0.1,0.4v0.1c0,0.2,0,0.4,0.1,0.5c0,0.2,0.1,0.3,0.1,0.5
	c0.1,0.1,0.1,0.2,0.2,0.3c0.1,0.1,0.1,0.1,0.2,0.1c0.1,0,0.3,0,0.5-0.1c0.2-0.1,0.4-0.1,0.6-0.2c0.2-0.1,0.4-0.2,0.6-0.3
	c0.2-0.1,0.4-0.2,0.6-0.4c0.4-0.3,0.9-0.6,1.4-1L307,87c-0.6,0.4-1.3,0.8-1.9,1.1c-0.3,0.1-0.6,0.3-0.8,0.4
	c-0.3,0.1-0.6,0.3-0.9,0.4s-0.6,0.2-0.9,0.3C302.2,89.2,302,89.3,301.7,89.3 M301.7,81c0.3-0.6,0.6-1.2,1-1.9c0.4-0.7,0.7-1.4,1-2.2
	c0.3-0.7,0.6-1.5,0.8-2.2c0.2-0.7,0.4-1.4,0.4-2.1c0-0.2,0-0.4,0-0.5c0-0.1,0-0.2-0.1-0.2c-0.2,0-0.4,0.1-0.6,0.4
	c-0.2,0.3-0.4,0.6-0.7,1.1c-0.2,0.4-0.5,1.2-0.8,2.2c-0.3,1-0.5,1.5-0.5,1.5c0,0-0.1,0.5-0.3,1.4C301.9,79.5,301.8,80.3,301.7,81"/>
<path fill="#FFFFFF" d="M311.2,81.2c0.2,0.4,0.4,0.8,0.5,1.3c0.1,0.4,0.2,1,0.2,1.5c0,0.4,0,0.8-0.1,1.2c-0.1,0.4-0.2,0.8-0.4,1.2
	c-0.2,0.4-0.4,0.8-0.6,1.1c-0.2,0.3-0.5,0.6-0.8,0.9c-0.3,0.3-0.7,0.4-1,0.6c-0.4,0.1-0.8,0.2-1.2,0.2c-0.6,0-1.1-0.1-1.6-0.4
	c-0.4-0.3-0.8-0.6-1.1-1c-0.3-0.4-0.5-0.9-0.6-1.5c-0.1-0.5-0.2-1.1-0.2-1.6c0-0.9,0.1-1.7,0.3-2.4c0.2-0.7,0.6-1.2,1-1.7
	c0.4-0.5,0.9-0.9,1.6-1.2c0.6-0.3,1.3-0.4,2.1-0.4c0.7,0,1.3,0.1,1.9,0.3c0.6,0.2,1.1,0.5,1.6,0.8c0.5,0.3,1,0.8,1.4,1.3
	c0.4,0.5,0.8,1,1.2,1.5l-0.2,1.5c-0.2-0.2-0.4-0.5-0.8-0.8c-0.3-0.3-0.7-0.6-1-1c-0.4-0.4-0.7-0.7-1.1-0.9c-0.3-0.2-0.6-0.5-0.9-0.6
	L311.2,81.2z M308,87.3c0.2,0,0.5-0.1,0.7-0.4c0.2-0.2,0.4-0.5,0.6-0.9c0.2-0.4,0.3-0.8,0.4-1.3c0.1-0.5,0.2-1,0.2-1.4
	c0-0.3,0-0.6-0.1-0.9c0-0.3-0.1-0.5-0.2-0.7c-0.1-0.2-0.2-0.4-0.4-0.5c-0.2-0.1-0.3-0.2-0.6-0.2c-0.3,0-0.6,0.1-0.8,0.4
	c-0.3,0.2-0.5,0.6-0.7,0.9c-0.2,0.4-0.3,0.8-0.5,1.3c-0.1,0.5-0.2,1-0.2,1.5c0,0.3,0,0.6,0.1,0.8c0.1,0.3,0.1,0.5,0.3,0.7
	c0.1,0.2,0.3,0.3,0.5,0.5C307.5,87.2,307.7,87.3,308,87.3"/>
<path fill="#FFFFFF" d="M317.9,87.3c0.7,0,1.3-0.1,1.9-0.2c0.6-0.1,1.1-0.3,1.6-0.5c0.5-0.2,0.9-0.5,1.3-0.8c0.4-0.3,0.7-0.6,1-1
	l0.1,2.3c-0.2,0.3-0.5,0.6-0.8,0.8c-0.3,0.3-0.7,0.5-1,0.7c-0.4,0.2-0.8,0.4-1.2,0.5c-0.4,0.1-0.8,0.2-1.2,0.2c0,0-0.1,0-0.2,0
	c-0.1,0-0.2,0-0.4-0.1c-0.2,0-0.4-0.1-0.8-0.2c-0.3-0.1-0.8-0.1-1.4-0.2V89c0,1.3-0.1,2.4-0.3,3.5c-0.2,1-0.5,1.9-0.9,2.7
	c-0.4,0.7-0.8,1.3-1.3,1.7c-0.5,0.4-1,0.6-1.5,0.6c-0.4,0-0.7-0.1-1-0.3c-0.3-0.2-0.5-0.5-0.6-0.8c-0.2-0.3-0.3-0.7-0.3-1.2
	c-0.1-0.4-0.1-0.9-0.1-1.4c0-0.3,0-0.6,0.1-1c0.1-0.4,0.2-0.7,0.4-1.1c0.2-0.4,0.3-0.8,0.5-1.2c0.2-0.4,0.4-0.8,0.6-1.2
	c0.5-0.9,1-1.8,1.6-2.8c0.1-0.5,0.2-1.1,0.2-1.6c0.1-0.6,0.2-1.1,0.3-1.6c0.1-0.5,0.3-1.1,0.6-1.7c0.3-0.6,0.5-1,0.8-1.4
	c0.3-0.4,0.6-0.6,1.1-0.8c0.4-0.2,0.9-0.3,1.5-0.3c0.4,0,0.8,0.1,1.2,0.2c0.4,0.1,0.7,0.3,1,0.6c0.3,0.3,0.5,0.6,0.7,1
	c0.2,0.4,0.2,0.9,0.2,1.5c0,0.6-0.1,1.1-0.2,1.5c-0.2,0.5-0.5,1-0.8,1.4c-0.3,0.4-0.7,0.8-1.2,1.1c-0.5,0.3-1,0.6-1.6,0.9
	L317.9,87.3z M312.9,93.8c0,0.1,0,0.1,0,0.3c0,0.1,0.1,0.2,0.1,0.4c0.1,0.1,0.1,0.2,0.2,0.3c0.1,0.1,0.2,0.1,0.3,0.1
	c0.1,0,0.2-0.1,0.3-0.2c0.1-0.1,0.1-0.3,0.2-0.5c0-0.2,0.1-0.5,0.1-0.7c0-0.3,0-0.5,0-0.8c0-0.3,0-0.6,0-0.8c0-0.3,0-0.5,0-0.7
	c0-0.4,0-0.7,0-0.9c0-0.3,0-0.5,0-0.6c0-0.2,0-0.4,0-0.5c-0.1,0.2-0.3,0.5-0.4,0.8c-0.1,0.3-0.2,0.6-0.4,0.9c-0.1,0.3-0.2,0.7-0.3,1
	c-0.1,0.3-0.2,0.6-0.2,0.9c-0.1,0.3-0.1,0.5-0.2,0.7C312.9,93.6,312.9,93.8,312.9,93.8 M316.6,86.3c0.4-0.2,0.8-0.4,1.1-0.7
	c0.3-0.2,0.5-0.5,0.8-0.8c0.1,0,0.3-0.3,0.6-0.9c0.2-0.5,0.4-0.9,0.4-1.2c0-0.1,0.1-0.3,0.1-0.5c0-0.2,0-0.4-0.1-0.6
	c-0.1-0.2-0.1-0.3-0.3-0.4c-0.1-0.1-0.3-0.2-0.5-0.2c-0.3,0-0.5,0.1-0.7,0.2c-0.2,0.1-0.4,0.3-0.5,0.6c-0.1,0.2-0.3,0.5-0.4,0.8
	c-0.1,0.3-0.2,0.7-0.3,1.2c-0.1,0.5-0.2,0.9-0.2,1.3C316.6,85.5,316.6,85.9,316.6,86.3"/>
<path fill="#FFFFFF" d="M334.1,87.1c-0.2,0.2-0.6,0.5-0.9,0.7c-0.4,0.3-0.8,0.5-1.2,0.7c-0.4,0.2-0.9,0.4-1.3,0.5
	c-0.4,0.1-0.9,0.2-1.3,0.2c-0.4,0-0.7,0-0.9-0.2c-0.2-0.1-0.4-0.2-0.6-0.4c-0.2-0.2-0.3-0.4-0.3-0.7c-0.1-0.3-0.1-0.5-0.1-0.9
	c0-0.4,0-0.9,0.1-1.5c0.2-1.2,0.3-1.9,0.4-2c0.1-0.3,0.3-1,0.6-2c0.3-0.8,0.4-1.4,0.5-1.6c0-0.2,0.1-0.3,0.3-0.5
	c0.1-0.1,0.3-0.2,0.5-0.3c0.2-0.1,0.4-0.1,0.6-0.2c0.2,0,0.4-0.1,0.5-0.1c0.3,0,0.5,0.1,0.6,0.2c0.1,0.1,0.2,0.3,0.2,0.4
	c0,0.2,0,0.4-0.1,0.6c-0.1,0.3-0.2,0.6-0.2,1c-0.1,0.4-0.2,0.8-0.4,1.4c-0.2,0.6-0.3,1-0.4,1.4c-0.1,0.4-0.1,0.8-0.2,1.2
	c-0.1,0.4-0.1,0.7-0.1,1.1c0,0.3,0,0.6,0.1,0.7c0.1,0.2,0.2,0.3,0.4,0.3c0.2,0,0.5-0.1,0.8-0.3c0.3-0.2,0.6-0.4,0.9-0.6
	c0.3-0.2,0.6-0.5,0.9-0.8c0.3-0.3,0.6-0.5,0.8-0.7V87.1z M329.5,76.1c0-0.2,0-0.3,0.1-0.5c0.1-0.2,0.2-0.4,0.3-0.6
	c0.2-0.2,0.4-0.3,0.6-0.5c0.3-0.1,0.6-0.2,1-0.2c0.2,0,0.5,0,0.7,0.1c0.2,0.1,0.4,0.1,0.6,0.3c0.2,0.1,0.3,0.3,0.4,0.5
	c0.1,0.2,0.1,0.4,0.1,0.7c0,0.2,0,0.5-0.1,0.7c-0.1,0.2-0.2,0.4-0.4,0.6c-0.2,0.2-0.4,0.3-0.6,0.4c-0.3,0.1-0.6,0.2-0.9,0.2
	c-0.6,0-1.1-0.1-1.4-0.4C329.6,77,329.5,76.6,329.5,76.1"/>
<path fill="#FFFFFF" d="M341.8,86.9c-0.7,0.4-1.3,0.7-1.8,1c-0.5,0.3-1,0.5-1.4,0.7c-0.4,0.2-0.8,0.3-1.1,0.4
	c-0.3,0.1-0.6,0.1-0.9,0.1c-0.5,0-1-0.2-1.4-0.5c-0.4-0.3-0.7-0.8-1-1.4c-0.3-0.6-0.5-1.3-0.6-2.2c-0.1-0.9-0.2-1.8-0.2-2.9
	c0-0.4,0-0.9,0.1-1.3c0-0.5,0.1-0.9,0.1-1.4c-0.2,0-0.4-0.1-0.5-0.1c-0.1,0-0.2-0.1-0.4-0.1c-0.1,0-0.3-0.1-0.5-0.1
	c-0.2,0-0.5-0.1-0.9-0.1c-0.2,0-0.3-0.1-0.4-0.1c-0.1-0.1-0.2-0.1-0.2-0.2c0-0.1-0.1-0.2-0.1-0.3c0-0.1,0-0.2,0-0.2
	c0-0.1,0.1-0.2,0.2-0.3c0.1-0.1,0.3-0.1,0.5-0.1c0.2,0,0.4,0,0.7,0c0.3,0,0.5,0,0.7,0c0.2,0,0.4,0,0.6,0c0.2,0,0.3,0,0.4,0
	c0.2-0.9,0.4-1.8,0.7-2.7c0.3-0.9,0.6-1.7,1-2.3c0.4-0.7,0.7-1.2,1.2-1.6c0.4-0.4,0.9-0.6,1.3-0.6c0.3,0,0.6,0.1,0.8,0.2
	c0.2,0.2,0.5,0.4,0.6,0.7c0.2,0.3,0.3,0.6,0.4,1c0.1,0.4,0.1,0.8,0.1,1.2c0,0.3,0,0.7-0.1,1.1c-0.1,0.4-0.2,0.7-0.4,1.1
	c-0.2,0.4-0.4,0.8-0.6,1.2c-0.2,0.4-0.5,0.8-0.7,1.2c0.1,0,0.2,0,0.3,0c0.1,0,0.3,0,0.5,0c0.2,0,0.4,0,0.6,0c0.2,0,0.4,0,0.6,0
	c0.2,0,0.4,0,0.6,0c0.2,0,0.3,0,0.4,0c0.1,0,0.2,0.1,0.3,0.2c0.1,0.1,0.1,0.3,0.1,0.6c0,0.3-0.1,0.5-0.2,0.6
	c-0.1,0.2-0.3,0.2-0.5,0.2h-4c-0.2,0.3-0.4,0.6-0.6,0.8c-0.2,0.3-0.4,0.5-0.6,0.7c0,0.4-0.1,0.9-0.1,1.3c0,0.2,0,0.4,0,0.6
	c0,0.2,0,0.4,0,0.6c0,0.2,0,0.4,0,0.5c0,0.2,0,0.3,0,0.5c0,0.4,0,0.7,0.1,0.9c0.1,0.3,0.2,0.5,0.3,0.6c0.1,0.2,0.3,0.3,0.5,0.4
	c0.2,0.1,0.4,0.1,0.6,0.1c0.1,0,0.3,0,0.5-0.1c0.2-0.1,0.5-0.2,0.7-0.3c0.3-0.1,0.5-0.3,0.8-0.4c0.3-0.2,0.6-0.3,0.9-0.5
	c0.3-0.2,0.6-0.4,0.8-0.6c0.3-0.2,0.5-0.4,0.7-0.7V86.9z M338.5,73.8c0-0.1,0-0.2,0-0.3c0-0.1,0-0.2-0.1-0.3c0-0.1-0.1-0.2-0.2-0.2
	c-0.1-0.1-0.2-0.1-0.3-0.1c-0.2,0-0.4,0.2-0.5,0.5c-0.2,0.3-0.4,0.7-0.5,1.2c-0.2,0.5-0.3,1-0.5,1.6c-0.2,0.6-0.3,1.2-0.4,1.7
	c0.1,0,0.2,0,0.3,0c0.1,0,0.2,0,0.3,0c0.2-0.4,0.4-0.7,0.7-1.1c0.2-0.4,0.4-0.8,0.6-1.2c0.2-0.4,0.3-0.8,0.4-1.1
	C338.4,74.3,338.5,74,338.5,73.8"/>
<path fill="#FFFFFF" d="M346.5,87.5c0,0,0,0.1,0,0.2c0,0.1,0,0.2-0.1,0.4c0,0.1-0.1,0.3-0.2,0.4c-0.1,0.1-0.2,0.3-0.3,0.4
	c-0.1,0.1-0.3,0.2-0.6,0.3c-0.2,0.1-0.5,0.1-0.8,0.1c-0.3,0-0.5,0-0.7-0.1c-0.2-0.1-0.4-0.2-0.5-0.3c-0.1-0.1-0.3-0.3-0.3-0.5
	c-0.1-0.2-0.1-0.4-0.1-0.7c0-0.2,0-0.5,0.1-0.7c0.1-0.2,0.2-0.4,0.3-0.6c0.2-0.2,0.3-0.3,0.6-0.4c0.2-0.1,0.5-0.2,0.9-0.2
	c0.6,0,1,0.1,1.3,0.4C346.3,86.6,346.5,87,346.5,87.5"/>
<path fill="#FFFFFF" d="M362.2,82.3c0,0,11.3-7.4,23.5-7.5c10.3-0.1,12.5,11.1,6.8,14.2c-6.5,3.5-12.1-1.7-15.9-3.7
	C372.1,82.8,362.2,82.3,362.2,82.3"/>
<path fill="#FFFFFF" d="M348,84.9c0,0,2.9-2.6,5.2-6.4c1.8-3,2.8-6.7,3.7-10.1c2.4-8.6,17.2-3.9,9,7.3C362,80.9,354.5,83,348,84.9"
	/>
<path fill="#FFFFFF" d="M350.5,87.8c3.5-2.5,11.7-5.2,13.7-0.8c2.3,5-3.9,6.1-5.8,3.8C356.5,88.3,350.5,87.8,350.5,87.8"/>
</svg>
